<svg xmlns="http://www.w3.org/2000/svg" width="500" height="500" viewBox="0 0 500 500">
  <defs>
    <style>
      .a {
        fill: #fff;
      }
    </style>
  </defs>
  <path class="a" d="M377.53,51.37,250,25,122.47,51.37c-10.54,112.14,4.23,168.41,4.23,168.41l18.66-3.84c-11.81-56.78-5.87-148.57-5.87-148.57L239.83,46C241.5,120.78,250,146,250,146s8.5-25.19,10.17-100l100.34,21.4s5.94,91.79-5.87,148.57l18.66,3.84S388.07,163.51,377.53,51.37Z"/>
  <path class="a" d="M363.83,272.53l-17.05-7.1c-22.33,92.06-94.24,178.06-96.71,181l-.07.07-.07-.07c-2.47-2.94-74.38-88.94-96.71-181l-17.05,7.1S156.36,374.1,249.29,474.22h0l.71.78.66-.73h0C343.64,374.14,363.83,272.53,363.83,272.53Z"/>
  <path class="a" d="M346.9,224.84l-.89,2.43-54.4-14a43.55,43.55,0,0,0,.26-4.6,41.69,41.69,0,0,0-11.79-29.09l34.26-44.75,2.2,1.37,27.29-32.58-13.94-9.7-13.95-9.7-21.06,36.91,2.05,1.59L266.8,170.29a41.77,41.77,0,0,0-33.61,0l-30.12-47.61,2.05-1.59L184.06,84.18l-13.95,9.7-14,9.7,27.29,32.58,2.2-1.37,34.27,44.75a41.69,41.69,0,0,0-11.79,29.09,40.23,40.23,0,0,0,.24,4.42L154,227.27l-.89-2.43-41.57,8.82,5,16.24,5,16.23,39.35-16.06-.64-2.51,53-18.92a41.89,41.89,0,0,0,28.58,21.05l-2.56,55.84-2.58.13L232.86,348h34l-3.79-42.33-2.59-.13-2.55-55.8a41.88,41.88,0,0,0,28.91-21.15l52.95,19-.63,2.51,39.35,16.06,5-16.23,5-16.24Z"/>
</svg>
