<?xml version="1.0" encoding="utf-8"?>
<!-- Generator: Adobe Illustrator 24.3.0, SVG Export Plug-In . SVG Version: 6.00 Build 0)  -->
<svg version="1.1" id="Layer_1" xmlns="http://www.w3.org/2000/svg" xmlns:xlink="http://www.w3.org/1999/xlink" x="0px" y="0px"
	 viewBox="0 0 1200 1200" style="enable-background:new 0 0 1200 1200;" xml:space="preserve">
<style type="text/css">
	.st0{fill:#FFFFFF;}
	.st1{font-family:'Bebas';}
	.st2{font-size:85.8583px;}
	.st3{letter-spacing:8;}
</style>
<rect x="0" y="0.5" width="1200" height="1200"/>
<g>
	<path class="st0" d="M600.7,1051.3c-205.6,0-372.8-167.2-372.8-372.8s167.2-372.8,372.8-372.8S973.6,473,973.6,678.5
		S806.3,1051.3,600.7,1051.3z M600.7,318.7C402.4,318.7,241,480.1,241,678.5c0,198.4,161.4,359.8,359.8,359.8
		c198.4,0,359.8-161.4,359.8-359.8C960.5,480.1,799.1,318.7,600.7,318.7z"/>
	<g>
		<path class="st0" d="M554.5,835.5c0,4-1.4,7.5-4.3,10.3c-2.8,2.8-6.3,4.2-10.3,4.2c-2.3,0-4.2-0.3-5.7-0.8l1.3-8.5
			c1,0.2,1.9,0.3,2.7,0.3c0.4,0,1.1,0,1.9,0c1.5-0.1,2.7-0.7,3.8-1.6c1-1,1.5-2.2,1.5-3.6v-47.4h9V835.5z"/>
		<path class="st0" d="M586.7,849.9c-4,0-7.4-1.4-10.3-4.2c-2.8-2.8-4.2-6.2-4.2-10.2v-47.2h9v47.1c0,1.4,0.5,2.7,1.5,3.7
			c1,1,2.3,1.5,3.7,1.5c1.5,0,2.7-0.5,3.7-1.5c1-1,1.5-2.3,1.5-3.7v-47.1h9.6v47.2c0,4.1-1.4,7.5-4.3,10.3
			C594.1,848.5,590.7,849.9,586.7,849.9z"/>
		<path class="st0" d="M628.3,849.1h-9.2v-60.8h9.2V849.1z"/>
		<path class="st0" d="M660.6,849.9c-4,0-7.5-1.4-10.3-4.2c-2.8-2.8-4.2-6.2-4.2-10.3v-33.3c0-4,1.4-7.5,4.3-10.3
			c2.8-2.8,6.3-4.3,10.3-4.3c4,0,7.5,1.4,10.3,4.3c2.8,2.8,4.2,6.3,4.2,10.3v6.9h-9.5v-7.1c0-1.5-0.5-2.7-1.5-3.8
			c-1-1-2.3-1.6-3.8-1.6c-1.4,0-2.7,0.5-3.7,1.6c-1,1-1.5,2.3-1.5,3.8v33.4c0,1.5,0.5,2.7,1.5,3.7c1,1,2.3,1.5,3.7,1.5
			c1.5,0,2.7-0.5,3.8-1.5c1-1,1.5-2.3,1.5-3.7v-8.4h9.5v8.5c0,4-1.4,7.5-4.3,10.3C668,848.5,664.6,849.9,660.6,849.9z"/>
		<path class="st0" d="M692.3,849.1v-60.8h26.1v9.2h-16.9v16.7h12.4v9.2h-12.4V840h16.9v9.2H692.3z"/>
		<path class="st0" d="M765,849.9c-4,0-7.5-1.4-10.3-4.2c-2.8-2.8-4.2-6.2-4.2-10.3v-33.3c0-4,1.4-7.5,4.3-10.3
			c2.8-2.8,6.3-4.3,10.3-4.3c4,0,7.5,1.4,10.3,4.3c2.8,2.8,4.2,6.3,4.2,10.3v6.9H770v-7.1c0-1.5-0.5-2.7-1.5-3.8
			c-1-1-2.3-1.6-3.8-1.6c-1.4,0-2.7,0.5-3.7,1.6c-1,1-1.5,2.3-1.5,3.8v33.4c0,1.5,0.5,2.7,1.5,3.7c1,1,2.3,1.5,3.7,1.5
			c1.5,0,2.7-0.5,3.8-1.5c1-1,1.5-2.3,1.5-3.7v-8.4h9.5v8.5c0,4-1.4,7.5-4.3,10.3C772.4,848.5,768.9,849.9,765,849.9z"/>
		<path class="st0" d="M811,787.6c4,0,7.5,1.4,10.3,4.3c2.8,2.8,4.3,6.3,4.3,10.3v33.2c0,4-1.4,7.5-4.3,10.3
			c-2.8,2.8-6.3,4.3-10.3,4.3s-7.4-1.4-10.3-4.3c-2.8-2.8-4.2-6.3-4.2-10.3v-33.2c0-4,1.4-7.5,4.3-10.3
			C803.7,789,807.1,787.6,811,787.6z M816,802c0-1.5-0.5-2.7-1.5-3.7c-1-1-2.3-1.5-3.7-1.5c-1.4,0-2.7,0.5-3.7,1.5
			c-1,1-1.6,2.2-1.6,3.7v33.3c0,1.4,0.5,2.7,1.6,3.7c1,1,2.3,1.5,3.7,1.5c1.5,0,2.7-0.5,3.7-1.5c1-1,1.5-2.3,1.5-3.7V802z"/>
		<path class="st0" d="M834,840h9.2v9.2H834V840z"/>
	</g>
	<g>
		<path class="st0" d="M635.5,720.4l-4.8,16.3c-6,19.2-21.3,29.1-35.3,29.1c-49,0-19.5-71.2-12.6-97.8c-11.9,3-25.6,4.6-36.9,3.4
			v0.2l-15.3,52.4c-3.2,10.3-18.8,5.7-15.6-4.6l15.3-52.4c-6.2-3.9-7.1-9.2-6.9-11.9c0-17.4,24-20.6,25,0.2
			c11.7,0.7,30.2-1.4,42.1-7.6c6.2-3.2,13.3,2.3,11.7,8.9c-11.7,49-30.2,87.2-9.8,92.5c7.8,1.8,18.8-4.1,22.7-17.4l4.8-16.3
			C623.1,705.3,638.7,710.1,635.5,720.4z"/>
		<path class="st0" d="M738.5,686.3c-3.4,19.9-16.5,33.9-33.7,38.2c-7.3,2.1-12.4,2.3-22.4,0.2c-5.5,18.3-7.1,28.4-18.8,35.9
			c-12.1,7.8-26.8,7.3-36.6-0.5c-20.4-15.8-7.1-44,1.1-70.3c1.8-6.4,10.1-7.8,14.2-2.5c-2.7-26.1,19-50.1,41.7-41.2
			c13.7,5.5,16.5,20.1,14.2,28.2l-10.1,34.8c8.9,1.6,13,0,18.3-2.5c21.3-10.1,11.2-32.1,25.4-29.8
			C736.2,677.6,739.2,682,738.5,686.3z M668,719.7c-11.7-5.5-20.6-13.1-24.3-25.4c-6.2,23.6-18.1,44.4-6.9,53.3
			c4.6,3.4,11.9,3.2,18.1-0.7C660.6,743.3,662.5,739,668,719.7z M672.6,703.9c9.8-33.4,9.8-34.1,9.8-34.6
			c1.6-9.2-11.7-13.3-19.5-1.4C656.1,678.1,654.7,695,672.6,703.9z"/>
		<path class="st0" d="M833,686.3c-3.4,19.9-16.5,33.9-33.7,38.2c-7.3,2.1-12.4,2.3-22.4,0.2c-5.5,18.3-7.1,28.4-18.8,35.9
			c-12.1,7.8-26.8,7.3-36.6-0.5c-20.4-15.8-7.1-44,1.1-70.3c1.8-6.4,10.1-7.8,14.2-2.5c-2.7-26.1,19-50.1,41.7-41.2
			c13.7,5.5,16.5,20.1,14.2,28.2l-10.1,34.8c8.9,1.6,13,0,18.3-2.5c21.3-10.1,11.2-32.1,25.4-29.8C830.8,677.6,833.7,682,833,686.3z
			 M762.5,719.7c-11.7-5.5-20.6-13.1-24.3-25.4c-6.2,23.6-18.1,44.4-6.9,53.3c4.6,3.4,11.9,3.2,18.1-0.7
			C755.2,743.3,757,739,762.5,719.7z M767.1,703.9c9.8-33.4,9.8-34.1,9.8-34.6c1.6-9.2-11.7-13.3-19.5-1.4
			C750.6,678.1,749.2,695,767.1,703.9z"/>
		<path class="st0" d="M872,636.2h-22c-22.7,72.6-32.7,97.5-26.3,109.2c2.7,4.6,9.4,6,14.4,4.6c10.3-2.5,14.2,13.3,3.9,15.8
			c-11.9,3-25.9-1.1-32.3-12.4c-10.8-18.8,1.1-45.6,23.4-117.2h-9.4c-10.8,0-10.8-16.3,0-16.3h14.4l17.4-55.9
			c3.2-10.1,18.5-5.3,15.3,4.8L855,619.9H872C882.7,619.9,882.7,636.2,872,636.2z"/>
	</g>
	<g>
		<path class="st0" d="M511.9,759.6c-7,25.3-17.7,41.7-27.9,52.2c1.8,5.9,3.5,12.1,5.7,18.6c1.4,4.7-1.1,9.6-5.8,11
			c-4.7,1.4-9.6-1.1-11-5.8c-1.2-4.1-2.5-8-3.6-11.6c-5.9,3.5-10.9,5.7-13.8,7.1c-9.5,4.1-19.8,5.4-29.9,4.2
			c-15-1.8-29.3-9-39.9-20.7c-16.2-18.4-18.2-43.3-5.3-66.1c11.7-20.5,35.2-32.2,55.6-42.4c1.9-1,3.5-1.8,5-2.6
			c-0.2-2.8-0.6-5.8-0.7-8.8c-3.7-37.6,15.9-45.9,22.1-47.4c12.1-3.3,25.1,2.7,30.2,14.1c2.3,5.5,8.1,25.6-23.8,46.7
			c-2.9,1.6-5.9,3.5-8.8,5.2c3.1,24,7.8,45,17.7,78.8c6.5-8.4,12.6-20.4,17.1-36.8c1.3-4.8,6.1-7.5,10.9-6.2
			C510.5,750.2,513.2,755,511.9,759.6z M464,806.4c-11.2-37.2-16.7-60.3-20.3-84.6c-19.3,9.6-38.9,19.5-47.8,35.1
			c-9.4,16.6-8.2,33.1,3,45.9c12.5,13.9,33.4,18.9,49.6,12.2C452.2,813.4,457.7,811.1,464,806.4z M457.8,692.8
			c-0.1,0.5-0.1,0.7,0.1,1.3c0.5-0.4,0.8-0.7,1.3-0.8c16.2-10.8,19.6-20.3,17.4-25.1c-1.2-2.4-3.7-4.2-6.4-4.5c-1-0.1-2,0-3.3,0.4
			C461.3,665.6,455.9,673.9,457.8,692.8z"/>
	</g>
	<g>
		<path class="st0" d="M468.6,584.4c-10.8,35.5-8.7,37.1-62.5,59.5c-0.7,2.1-10.8,35.7-12.1,37.5c-21.3,57.5-75.1,38-82.7,15.8
			c-11.9-35,47.6-51.5,81.5-65.5l2.3-7.6c-20.8,11.4-49-3.9-42.6-33.9c0.2-1.4,18.1-54.5,18.5-55.2c10.5-30.7,42.6-34.1,56.8-16
			l1.8-5.3c3-10.1,18.5-5.3,15.3,4.8l-32.5,104.9c35.3-15.3,31.8-14.4,40.5-43.7C456.3,569.6,471.6,574.1,468.6,584.4z M381.2,668.5
			c0,0,0,0.9,5.5-16.5c-25.6,10.3-65.5,23.8-60,40.1C329.7,700.5,366.3,720.2,381.2,668.5z M408.4,582.1c12.6-40.3,8-25.6,9.4-30.9
			c7.1-32.1-23.1-35-31.4-10.8l-18.1,52.9c-4.6,21.3,23.4,30.2,33-5.3C402.2,584.9,405.2,582.6,408.4,582.1z"/>
		<path class="st0" d="M572.6,584.4l-4.8,16.3c-6,19.2-21.3,29.1-35.3,29.1c-49,0-19.5-71.2-12.6-97.8c-11.9,3-25.6,4.6-36.9,3.4
			v0.2l-15.3,52.4c-3.2,10.3-18.8,5.7-15.6-4.6l15.3-52.4c-6.2-3.9-7.1-9.2-6.9-11.9c0-17.4,24-20.6,25,0.2
			c11.7,0.7,30.2-1.4,42.1-7.6c6.2-3.2,13.3,2.3,11.7,8.9c-11.7,49-30.2,87.2-9.8,92.5c7.8,1.8,18.8-4.1,22.7-17.4l4.8-16.3
			C560.2,569.3,575.8,574.1,572.6,584.4z"/>
		<path class="st0" d="M666.4,584.7l-6.4,19.9c-10.3,30.5-41.4,32.7-53.1,14.9c-14.9,13.5-38.9,14.9-49.7,0.9
			c-9.6-12.4-5-26.8-1.4-38.7c15.1-48.5,16.7-62.3,37.1-70.3c10.8-4.4,24.7-2.1,32.5,7.6l1.4-4.1c3.2-10.1,18.5-5.3,15.3,5
			c-0.2,0.5-17.6,55.6-17.6,55.6c-4.8,15.3-11.7,35.5,1.6,38.7c6,1.6,14.7-3,18.5-14.7l6.4-19.9
			C654.3,569.3,669.9,574.4,666.4,584.7z M602.3,596.3c2.7-13.7,3.7-15.8,13.7-48.3c-1.6-1.8-2.5-4.6-1.8-7.1
			c3.7-15.8-9.4-16.9-15.3-14.4c-11.9,4.6-12.4,11-27.2,58.8c-3.7,11.7-6,19.5-1.6,25C576.2,618.3,599.4,612.8,602.3,596.3z"/>
		<path class="st0" d="M763.3,584.7c-6,19-13.3,51.3-43.7,45.1c-6-1.1-12.4-3.9-16.7-9.8c-26.3,26.8-66.6-1.1-55.4-31.6
			c3.7-10.1,18.8-4.4,15.1,5.7c-2.5,6.9,2.3,16.5,9.6,19.2c11.7,4.4,22.9-4.6,25.4-16.7c1.4-21.8-9.2-24.3-20.4-41
			c-10.3-15.3-7.1-29.1-0.5-36.9c13-15.8,41.4-13.3,47.8,9.6c2.7,9.6,0.9,20.8-5,29.1c-6.2,8.7-19.5-0.7-13.3-9.4
			c3-4.1,4.1-10.5,2.7-15.3c-2.7-9.8-14.9-9.8-19.9-3.7c-14,16.7,30.5,32.1,24.5,69.1c-0.7,13.7,5,14.9,9.2,15.8
			c15.8,3,19.5-16.5,25-34.1C750.9,569.6,766.5,574.4,763.3,584.7z"/>
		<path class="st0" d="M761.2,594c-5.3,14.2,15.6,29.5,29.8,13.5c5.3-6.2,8.9-17.2,2.5-29.3c-4.1-7.6-11.7-14-17.4-22.7
			c-10.5-15.3-7.1-29.1-0.7-36.9c16.7-20.1,53.8-9.2,48.8,24c-1.6,10.5-17.6,8.2-16-2.5c3.7-25-34.8-17.4-18.8,6.4
			c5.3,7.6,13.3,14.4,18.3,24c8.5,15.8,6.6,34.6-4.6,47.4c-25.4,29.3-68.7,2.1-57-29.8C749.8,578.3,764.9,584,761.2,594z"/>
	</g>
</g>
<text transform="matrix(1 0 0 1 449.2583 231.2402)" class="st0 st1 st2 st3">before</text>
</svg>
