<svg xmlns="http://www.w3.org/2000/svg" width="800" height="800" viewBox="0 0 800 800">
  <defs>
    <style>
      .a, .b {
        fill: #fff;
      }

      .b {
        font-size: 57.24px;
        font-family: Bebas;
        letter-spacing: 0.12em;
      }

      .c {
        letter-spacing: 0.1em;
      }

      .d {
        letter-spacing: 0.13em;
      }

      .e {
        letter-spacing: 0.12em;
      }

      .f {
        letter-spacing: 0.1em;
      }
    </style>
  </defs>
  <rect width="800" height="800"/>
  <g>
    <path class="a" d="M400.5,700.56C263.45,700.56,152,589.07,152,452S263.45,203.48,400.5,203.48,649,315,649,452,537.55,700.56,400.5,700.56Zm0-488.4c-132.26,0-239.86,107.6-239.86,239.86S268.24,691.88,400.5,691.88,640.36,584.28,640.36,452,532.76,212.16,400.5,212.16Z"/>
    <g>
      <path class="a" d="M369.65,556.65a9.2,9.2,0,0,1-2.83,6.83,9.4,9.4,0,0,1-6.84,2.79,11.65,11.65,0,0,1-3.78-.51l.87-5.69a8.35,8.35,0,0,0,1.78.22,7.15,7.15,0,0,0,1.29,0,3.92,3.92,0,0,0,2.51-1.08,3.17,3.17,0,0,0,1-2.41V525.21h6Z"/>
      <path class="a" d="M391.12,566.27a9.59,9.59,0,0,1-9.64-9.62V525.21h6v31.37a3.35,3.35,0,0,0,1,2.47,3.41,3.41,0,0,0,2.48,1,3.37,3.37,0,0,0,2.48-1,3.41,3.41,0,0,0,1-2.47V525.21h6.38v31.44a9.17,9.17,0,0,1-2.85,6.84A9.42,9.42,0,0,1,391.12,566.27Z"/>
      <path class="a" d="M418.84,565.76h-6.11V525.21h6.11Z"/>
      <path class="a" d="M440.4,566.27a9.65,9.65,0,0,1-9.69-9.67V534.39a9.69,9.69,0,1,1,19.37,0V539h-6.34v-4.74a3.52,3.52,0,0,0-3.54-3.53,3.32,3.32,0,0,0-2.46,1,3.4,3.4,0,0,0-1,2.5v22.26a3.5,3.5,0,0,0,3.49,3.51,3.45,3.45,0,0,0,2.51-1,3.37,3.37,0,0,0,1-2.49V551h6.34v5.64a9.66,9.66,0,0,1-9.68,9.67Z"/>
      <path class="a" d="M461.54,565.76V525.21H479v6.12H467.66v11.11h8.25v6.11h-8.25v11.1H479v6.11Z"/>
      <path class="a" d="M510,566.27a9.65,9.65,0,0,1-9.7-9.67V534.39a9.69,9.69,0,1,1,19.37,0V539h-6.34v-4.74a3.52,3.52,0,0,0-3.53-3.53,3.33,3.33,0,0,0-2.47,1,3.43,3.43,0,0,0-1,2.5v22.26a3.4,3.4,0,0,0,1,2.49,3.36,3.36,0,0,0,2.47,1,3.43,3.43,0,0,0,2.5-1,3.37,3.37,0,0,0,1-2.49V551h6.34v5.64a9.66,9.66,0,0,1-9.67,9.67Z"/>
      <path class="a" d="M540.67,524.72a9.7,9.7,0,0,1,9.72,9.72v22.12a9.7,9.7,0,0,1-9.72,9.71,9.22,9.22,0,0,1-6.83-2.84,9.4,9.4,0,0,1-2.81-6.87V534.44a9.7,9.7,0,0,1,9.64-9.72Zm3.34,9.6a3.51,3.51,0,0,0-6-2.47,3.31,3.31,0,0,0-1,2.47v22.2a3.32,3.32,0,0,0,1,2.46,3.42,3.42,0,0,0,2.48,1,3.48,3.48,0,0,0,3.49-3.49Z"/>
      <path class="a" d="M556,559.67h6.12v6.11H556Z"/>
    </g>
    <g>
      <path class="a" d="M423.64,480l-3.2,10.84c-4,12.82-14.19,19.38-23.51,19.38-32.66,0-13-47.47-8.39-65.17-7.94,2-17.1,3.05-24.57,2.29v.15l-10.23,34.95c-2.14,6.87-12.52,3.82-10.38-3.05l10.23-34.95c-4.12-2.6-4.74-6.11-4.58-7.94,0-11.6,16-13.74,16.63.15,7.79.46,20.15-.91,28.09-5a5.39,5.39,0,0,1,7.78,5.95c-7.78,32.66-20.14,58.15-6.56,61.66,5.19,1.22,12.52-2.75,15.11-11.6l3.21-10.84C415.4,469.88,425.78,473.08,423.64,480Z"/>
      <path class="a" d="M492.33,457.21c-2.29,13.28-11,22.59-22.44,25.49-4.88,1.37-8.24,1.52-15,.15-3.66,12.21-4.73,18.93-12.51,24-8.09,5.19-17.86,4.89-24.43-.3-13.58-10.53-4.73-29.31.77-46.86a5.37,5.37,0,0,1,9.46-1.68c-1.83-17.4,12.67-33.43,27.78-27.47,9.16,3.66,11,13.43,9.46,18.77l-6.71,23.2c5.95,1.07,8.7,0,12.21-1.68,14.19-6.71,7.48-21.37,16.94-19.84A5.5,5.5,0,0,1,492.33,457.21Zm-47,22.28c-7.79-3.66-13.74-8.7-16.18-16.94-4.12,15.72-12.06,29.61-4.58,35.56,3.05,2.29,7.93,2.14,12.06-.45C440.43,495.21,441.65,492.31,445.32,479.49ZM448.37,469c6.56-22.28,6.56-22.74,6.56-23,1.07-6.1-7.78-8.85-13-.91C437.38,451.71,436.46,463,448.37,469Z"/>
      <path class="a" d="M555.36,457.21c-2.29,13.28-11,22.59-22.43,25.49-4.89,1.37-8.25,1.52-15,.15-3.67,12.21-4.73,18.93-12.52,24-8.09,5.19-17.86,4.89-24.42-.3-13.59-10.53-4.73-29.31.76-46.86a5.38,5.38,0,0,1,9.47-1.68c-1.84-17.4,12.66-33.43,27.78-27.47,9.15,3.66,11,13.43,9.46,18.77l-6.72,23.2c6,1.07,8.7,0,12.21-1.68,14.2-6.71,7.48-21.37,17-19.84A5.49,5.49,0,0,1,555.36,457.21Zm-47,22.28c-7.78-3.66-13.74-8.7-16.18-16.94-4.12,15.72-12.06,29.61-4.58,35.56,3.06,2.29,7.94,2.14,12.06-.45C503.47,495.21,504.69,492.31,508.35,479.49Zm3-10.53c6.57-22.28,6.57-22.74,6.57-23,1.07-6.1-7.79-8.85-13-.91C500.41,451.71,499.5,463,511.4,469Z"/>
      <path class="a" d="M581.31,423.78H566.65c-15.11,48.39-21.82,65-17.55,72.81,1.83,3.05,6.26,4,9.62,3.05,6.86-1.68,9.46,8.85,2.59,10.53-7.94,2-17.25-.76-21.52-8.24-7.17-12.52.76-30.37,15.57-78.15H549.1c-7.17,0-7.17-10.84,0-10.84h9.62l11.6-37.24c2.13-6.72,12.36-3.51,10.22,3.21l-10.53,34h11.3C588.48,412.94,588.48,423.78,581.31,423.78Z"/>
    </g>
    <path class="a" d="M341.26,506c-4.68,16.87-11.79,27.81-18.61,34.8,1.19,4,2.36,8.08,3.83,12.41a5.86,5.86,0,0,1-11.2,3.48c-.83-2.76-1.69-5.35-2.39-7.76a97.93,97.93,0,0,1-9.2,4.71,38.51,38.51,0,0,1-19.92,2.77,42.68,42.68,0,0,1-26.58-13.8c-10.82-12.25-12.16-28.84-3.53-44.08,7.78-13.69,23.48-21.44,37.08-28.28,1.24-.68,2.3-1.22,3.36-1.76-.11-1.84-.36-3.86-.46-5.86-2.49-25,10.63-30.61,14.73-31.61a17.26,17.26,0,0,1,20.13,9.37c1.56,3.67,5.43,17.09-15.83,31.15-2,1.09-3.94,2.35-5.89,3.45,2.07,16,5.21,30,11.81,52.54C322.92,521.94,327,514,330,503a5.83,5.83,0,0,1,7.3-4.1A5.77,5.77,0,0,1,341.26,506Zm-32,31.21c-7.49-24.8-11.14-40.18-13.51-56.4-12.89,6.43-26,13-31.86,23.43-6.29,11-5.46,22.09,2,30.61,8.36,9.3,22.24,12.62,33.07,8.1A45.13,45.13,0,0,0,309.3,537.25Zm-4.07-75.69a1.44,1.44,0,0,0,.07.84,2.67,2.67,0,0,1,.89-.56c10.82-7.17,13.07-13.55,11.63-16.71a5.74,5.74,0,0,0-4.29-3,5.67,5.67,0,0,0-2.19.24C307.56,443.41,303.91,449,305.23,461.56Z"/>
    <g>
      <path class="a" d="M312.42,389.29C305.25,413,306.62,414,270.75,429c-.46,1.38-7.17,23.82-8.09,25-14.19,38.31-50.06,25.33-55.1,10.53-7.94-23.35,31.75-34.34,54.34-43.66l1.53-5c-13.89,7.63-32.67-2.6-28.39-22.59.15-.92,12.05-36.33,12.36-36.79,7-20.45,28.39-22.74,37.85-10.68l1.22-3.51c2-6.72,12.37-3.51,10.23,3.2L275,415.39c23.5-10.23,21.21-9.62,27-29.15C304.18,379.37,314.41,382.42,312.42,389.29Zm-58.31,56s0,.61,3.67-11c-17.1,6.87-43.66,15.87-40,26.71C219.77,466.68,244.19,479.8,254.11,445.31Zm18.17-57.55c8.39-26.86,5.34-17.09,6.26-20.6,4.73-21.37-15.42-23.36-20.91-7.18l-12.06,35.26c-3.06,14.2,15.57,20.15,22-3.51A5.78,5.78,0,0,1,272.28,387.76Z"/>
      <path class="a" d="M381.71,389.29l-3.2,10.84c-4,12.82-14.2,19.38-23.51,19.38-32.66,0-13-47.47-8.39-65.17-7.94,2-17.1,3.05-24.58,2.29v.15l-10.22,35c-2.14,6.87-12.52,3.82-10.38-3.05l10.22-34.95c-4.12-2.6-4.73-6.11-4.58-7.94,0-11.6,16-13.74,16.64.15,7.79.46,20.15-.92,28.09-5a5.4,5.4,0,0,1,7.78,6C351.8,379.52,339.43,405,353,408.52c5.19,1.22,12.51-2.75,15.11-11.6l3.2-10.84C373.47,379.22,383.85,382.42,381.71,389.29Z"/>
      <path class="a" d="M444.29,389.44,440,402.72c-6.86,20.3-27.62,21.83-35.41,9.92-9.92,9-25.94,9.92-33.12.61-6.41-8.24-3.36-17.86-.91-25.79,10.07-32.36,11.14-41.52,24.72-46.86,7.18-2.9,16.49-1.37,21.68,5l.91-2.75c2.14-6.72,12.37-3.51,10.23,3.36-.15.3-11.75,37.09-11.75,37.09-3.21,10.22-7.79,23.66,1.07,25.79,4,1.07,9.76-2,12.36-9.77l4.27-13.28C436.2,379.22,446.58,382.57,444.29,389.44Zm-42.74,7.79c1.83-9.16,2.44-10.54,9.16-32.21a5.28,5.28,0,0,1-1.22-4.73c2.44-10.53-6.26-11.3-10.23-9.62-7.93,3.06-8.24,7.33-18.16,39.23-2.44,7.78-4,13-1.07,16.64C384.15,411.88,399.57,408.22,401.55,397.23Z"/>
      <path class="a" d="M508.85,389.44c-4,12.67-8.85,34.19-29.15,30.07A17.45,17.45,0,0,1,468.55,413c-17.55,17.86-44.41-.77-36.93-21.07,2.44-6.71,12.51-2.9,10.07,3.82-1.68,4.58,1.53,11,6.41,12.82,7.79,2.9,15.26-3,16.94-11.14.92-14.5-6.1-16.18-13.58-27.32-6.87-10.23-4.73-19.39-.31-24.58,8.7-10.53,27.63-8.85,31.9,6.41a23.09,23.09,0,0,1-3.35,19.39c-4.12,5.8-13-.46-8.86-6.26a12.77,12.77,0,0,0,1.83-10.23c-1.83-6.56-9.92-6.56-13.28-2.44-9.31,11.14,20.31,21.37,16.34,46.1-.46,9.16,3.35,9.92,6.1,10.53,10.53,2,13-11,16.64-22.74C500.61,379.37,511,382.57,508.85,389.44Z"/>
      <path class="a" d="M507.47,395.7c-3.51,9.46,10.38,19.69,19.84,9,3.51-4.13,6-11.45,1.68-19.54-2.75-5-7.78-9.31-11.6-15.11-7-10.23-4.73-19.39-.46-24.58,11.15-13.43,35.87-6.1,32.52,16-1.07,7-11.76,5.49-10.69-1.68,2.44-16.64-23.2-11.6-12.52,4.27,3.52,5,8.86,9.62,12.21,16,5.65,10.53,4.43,23.05-3.05,31.6-16.94,19.53-45.79,1.37-38-19.85C499.84,385.17,509.91,389,507.47,395.7Z"/>
    </g>
  </g>
  <text class="b" transform="translate(297.42 153.83)">b<tspan class="c" x="38.26" y="0">ef</tspan><tspan class="d" x="104.04" y="0">o</tspan><tspan class="e" x="140.9" y="0">r</tspan><tspan class="f" x="178.98" y="0">e</tspan></text>
</svg>
