<svg xmlns="http://www.w3.org/2000/svg" width="1000" height="400" viewBox="0 0 1000 400">
  <defs>
    <style>
      .a {
        fill: #fff;
      }
    </style>
  </defs>
  <rect width="1000" height="400"/>
  <g>
    <path class="a" d="M500,350c-82.71,0-150-67.29-150-150S417.29,50,500,50s150,67.29,150,150S582.71,350,500,350Zm0-294.76c-79.82,0-144.76,64.94-144.76,144.76S420.18,344.76,500,344.76,644.76,279.82,644.76,200,579.82,55.24,500,55.24Z"/>
    <path class="a" d="M481.38,263.14a5.57,5.57,0,0,1-1.71,4.13,5.66,5.66,0,0,1-4.12,1.68,7.15,7.15,0,0,1-2.28-.3l.52-3.44a5.07,5.07,0,0,0,1.07.13,4.14,4.14,0,0,0,.78,0,2.37,2.37,0,0,0,1.52-.65,1.92,1.92,0,0,0,.61-1.46V244.17h3.61Z"/>
    <path class="a" d="M494.34,269a5.79,5.79,0,0,1-5.82-5.81v-19h3.61V263.1a2.12,2.12,0,0,0,2.12,2.11,2,2,0,0,0,1.49-.62,2,2,0,0,0,.61-1.49V244.17h3.85v19a5.58,5.58,0,0,1-1.71,4.14A5.76,5.76,0,0,1,494.34,269Z"/>
    <path class="a" d="M511.07,268.65h-3.69V244.17h3.69Z"/>
    <path class="a" d="M524.08,269a5.82,5.82,0,0,1-5.85-5.83V249.71a5.85,5.85,0,1,1,11.69,0v2.79H526.1v-2.85a2.12,2.12,0,0,0-3.63-1.51,2.06,2.06,0,0,0-.61,1.51v13.43a2.1,2.1,0,0,0,2.1,2.12,2.07,2.07,0,0,0,1.51-.62,2,2,0,0,0,.63-1.5v-3.37h3.82v3.41a5.58,5.58,0,0,1-1.72,4.14A5.65,5.65,0,0,1,524.08,269Z"/>
    <path class="a" d="M536.84,268.65V244.17h10.51v3.69h-6.82v6.71h5v3.69h-5V265h6.82v3.69Z"/>
    <path class="a" d="M566.07,269a5.82,5.82,0,0,1-5.85-5.83V249.71a5.85,5.85,0,1,1,11.69,0v2.79h-3.83v-2.85a2,2,0,0,0-.62-1.51,2.05,2.05,0,0,0-1.51-.63,2,2,0,0,0-1.49.63,2.07,2.07,0,0,0-.62,1.51v13.43A2.12,2.12,0,0,0,566,265.2a2.08,2.08,0,0,0,1.51-.62,2,2,0,0,0,.62-1.5v-3.37h3.83v3.41a5.58,5.58,0,0,1-1.72,4.14A5.65,5.65,0,0,1,566.07,269Z"/>
    <path class="a" d="M584.6,243.88a5.84,5.84,0,0,1,5.86,5.86v13.35a5.85,5.85,0,0,1-10,4.15,5.71,5.71,0,0,1-1.7-4.15V249.74a5.86,5.86,0,0,1,5.83-5.86Zm2,5.79a2,2,0,0,0-.61-1.49,2.14,2.14,0,0,0-3,0,2,2,0,0,0-.63,1.49v13.4a2.12,2.12,0,0,0,4.23,0Z"/>
    <path class="a" d="M593.85,265h3.69v3.69h-3.69Z"/>
    <path class="a" d="M609.12,176.42H602.3l6.36-20.55c1.29-4.05-4.88-6-6.17-1.93l-7,22.48h-5.81c-4.33,0-4.33,6.54,0,6.54h3.78c-2.07,6.69-3.92,12.4-5.49,17.33-1.65,2.3-1,8-7.4,11a10.2,10.2,0,0,1-7.37,1l4-14A9.71,9.71,0,0,0,571.54,187c-8.23-3.24-16.16,4.32-16.82,13.54a3.12,3.12,0,0,0-2-1.2c-5.71-.92-1.66,7.93-10.23,12a10.19,10.19,0,0,1-7.37,1l4.06-14A9.72,9.72,0,0,0,533.5,187c-9.12-3.59-17.88,6.08-16.77,16.58a3.24,3.24,0,0,0-5.71,1c-1.15,3.68-2.55,7.45-3.54,11.07l-1.71,5.78c-1.57,5.34-6,7.74-9.12,7-8.2-2.12-.74-17.5,4-37.21a3.25,3.25,0,0,0-4.7-3.59c-4.79,2.48-12.25,3.31-17,3-.36-8.38-10-7.09-10-.09a5.23,5.23,0,0,0,2.77,4.79l-6.18,21.1c-1.28,4.14,5,6,6.27,1.84L478,197.24v-.1a45.73,45.73,0,0,0,14.83-1.38c-2.76,10.69-14.64,39.34,5.07,39.34a14.14,14.14,0,0,0,10.27-4.77,11.24,11.24,0,0,0,2.44,2.55c4,3.14,9.86,3.32,14.74.19,4.7-3,5.34-7.09,7.55-14.46,4,.83,6.08.73,9-.1a17.9,17.9,0,0,0,3.22-1.16c-1.46,6.15-1.41,11.73,3.5,15.53,4,3.14,9.86,3.32,14.74.19,4.7-3,5.34-7.09,7.55-14.46,4.06.83,6.08.73,9-.1a17.13,17.13,0,0,0,3.24-1.17c-1.13,5.66-1,9.52.9,12.78,2.58,4.52,8.2,6.17,13,5,4.15-1,2.58-7.37-1.56-6.36-2,.55-4.7,0-5.81-1.84-2.58-4.7,1.48-14.74,10.6-43.94h8.84C613.45,183,613.45,176.42,609.12,176.42ZM521.8,227.54c-2.49,1.57-5.44,1.66-7.28.28-2.52-2-2.14-5.51-.88-9.86l.09-.3c1-3.37,2.49-7.24,3.55-11.31,1.48,5,5.07,8,9.77,10.23C524.84,224.32,524.1,226.07,521.8,227.54Zm11.05-31.23c0,.19,0,.46-4,13.91-7.19-3.59-6.63-10.41-3.87-14.46C528.15,191,533.5,192.63,532.85,196.31Zm27,31.23c-2.49,1.57-5.44,1.66-7.28.28-4.51-3.59.28-12,2.76-21.47,1.48,5,5.07,8,9.77,10.23C562.88,224.32,562.14,226.07,559.84,227.54Zm11-31.23c0,.19,0,.46-4,13.91-7.18-3.59-6.63-10.41-3.87-14.46C566.19,191,571.54,192.63,570.89,196.31Z"/>
    <path class="a" d="M464.24,232.6c-2.81,10.18-7.11,16.79-11.22,21,.72,2.39,1.42,4.88,2.31,7.49a3.54,3.54,0,1,1-6.76,2.1c-.5-1.66-1-3.23-1.45-4.68a57.39,57.39,0,0,1-5.55,2.84,23.3,23.3,0,0,1-12,1.68,25.83,25.83,0,0,1-16-8.33c-6.53-7.4-7.34-17.41-2.13-26.61,4.69-8.26,14.17-12.94,22.38-17.07.75-.41,1.39-.73,2-1.05-.07-1.12-.22-2.34-.28-3.54-1.5-15.11,6.41-18.48,8.89-19.08A10.41,10.41,0,0,1,456.55,193c.94,2.21,3.28,10.31-9.56,18.79-1.18.66-2.37,1.42-3.55,2.08,1.24,9.67,3.14,18.11,7.13,31.72a42.31,42.31,0,0,0,6.88-14.81,3.52,3.52,0,0,1,4.4-2.48A3.48,3.48,0,0,1,464.24,232.6ZM445,251.44c-4.52-15-6.72-24.25-8.16-34-7.77,3.88-15.66,7.85-19.22,14.14-3.8,6.66-3.3,13.33,1.2,18.48,5,5.61,13.42,7.61,20,4.88A27.36,27.36,0,0,0,445,251.44Zm-2.46-45.68a1,1,0,0,0,0,.5,1.67,1.67,0,0,1,.54-.33c6.53-4.33,7.89-8.18,7-10.09a3.44,3.44,0,0,0-2.59-1.81,3.54,3.54,0,0,0-1.32.14C443.91,194.8,441.71,198.15,442.5,205.76Z"/>
    <path class="a" d="M570.27,135.7c-2.58,3.14-4,8.66.28,14.83,2.3,3.5,5.34,6.08,7,9.12a10.34,10.34,0,0,1-1,11.79c-5.71,6.45-14.09.28-12-5.43a3.5,3.5,0,0,0,.18-1.66c.23-.73.44-1.45.65-2.12,1.29-4.14-5-6.08-6.26-1.93-2.21,7.09-3.69,14.92-10,13.72-1.66-.36-4-.82-3.69-6.35,2.4-14.93-15.48-21.1-9.86-27.82,2-2.49,6.91-2.49,8,1.47a7.72,7.72,0,0,1-1.11,6.17c-2.48,3.5,2.86,7.28,5.35,3.78a13.93,13.93,0,0,0,2-11.7c-2.58-9.21-14-10.22-19.25-3.87-2.67,3.14-4,8.66.18,14.83,4.52,6.73,8.76,7.74,8.2,16.49-1,4.89-5.52,8.48-10.22,6.73a6.88,6.88,0,0,1-4.13-5.84l1.83-5.68c1.38-4.14-4.88-6.17-6.17-2l-.73,2.26a3.37,3.37,0,0,0-.75,1.24,12.85,12.85,0,0,0-.75,3.4l-.35,1.11c-1.57,4.7-5.07,6.54-7.46,5.9-5.35-1.29-2.58-9.4-.65-15.57,0,0,7-22.2,7.09-22.39,1.29-4.14-4.88-6.08-6.17-2l-.55,1.66c-3.13-3.87-8.75-4.79-13.08-3-8.2,3.22-8.85,8.75-14.93,28.28a44.05,44.05,0,0,0-1.5,5.81c-1.6,5.27-6,7.63-9.09,6.9-8.19-2.12-.73-17.5,4-37.22a3.25,3.25,0,0,0-4.69-3.59c-4.79,2.49-12.25,3.32-16.95,3-.37-8.38-10-7.09-10-.09a5.22,5.22,0,0,0,2.76,4.79l-5.6,19.14a3.45,3.45,0,0,0-.2.48c-3.5,11.79-2.12,11.42-16.31,17.59l13.09-42.19c1.29-4-5-6-6.18-1.93l-.73,2.12c-5.71-7.28-18.61-5.9-22.85,6.45-.18.27-7.37,21.64-7.46,22.2-2.58,12.06,8.75,18.24,17.13,13.63l-.92,3c-13.63,5.62-37.58,12.25-32.79,26.34,3,8.94,24.69,16.77,33.25-6.35.56-.74,4.61-14.28,4.89-15.11,20.54-8.56,20.84-9.59,24.52-21.87a4.7,4.7,0,0,0,.25-.6l6.17-21.1v-.09a46.07,46.07,0,0,0,14.84-1.38c-2.77,10.68-14.65,39.33,5.06,39.33a14,14,0,0,0,9.68-4.16c.09.13.17.26.27.38,4.33,5.62,14,5.07,20-.37,3.85,5.9,13,6.33,18.42-.47a13.27,13.27,0,0,0,20.17.66,10.56,10.56,0,0,0,6.73,4c6,1.23,9.81-1.31,12.38-5.11a13.4,13.4,0,0,0,21.24.41,16.79,16.79,0,0,0,1.84-19.07c-2-3.87-5.25-6.63-7.37-9.67-6.45-9.58,9-12.62,7.55-2.58-.64,4.33,5.81,5.25,6.45,1C591.92,132,577,127.6,570.27,135.7ZM411.65,196c-6,20.82-20.72,12.9-21.92,9.49-2.21-6.54,13.82-12,24.14-16.12C411.65,196.32,411.65,196,411.65,196Zm8.11-32.33c-3.87,14.27-15.11,10.68-13.26,2.11l7.27-21.28c3.32-9.76,15.48-8.56,12.62,4.33-.55,2.12,1.29-3.77-3.77,12.44A3.49,3.49,0,0,0,419.76,163.62Zm80.87,3.31c-1.19,6.63-10.5,8.84-13,5.62a5.1,5.1,0,0,1-.9-3.93l1.91-6.48a3.51,3.51,0,0,0,.16-1.33c5.47-17.71,5.79-20.19,10.43-22,2.4-1,7.65-.56,6.17,5.8a3.22,3.22,0,0,0,.74,2.85C502.11,160.57,501.74,161.4,500.63,166.93Z"/>
  </g>
</svg>
