<svg xmlns="http://www.w3.org/2000/svg" width="500" height="500" viewBox="0 0 500 500">
  <defs>
    <style>
      .a {
        fill: #fff;
      }
    </style>
  </defs>
  <g>
    <path class="a" d="M250,475C125.93,475,25,374.06,25,250S125.93,25,250,25,475,125.93,475,250,374.06,475,250,475Zm0-442.14C130.27,32.86,32.86,130.27,32.86,250S130.27,467.14,250,467.14,467.14,369.73,467.14,250,369.73,32.86,250,32.86Z"/>
    <path class="a" d="M222.07,344.72a8.36,8.36,0,0,1-2.56,6.19,8.52,8.52,0,0,1-6.19,2.52,10.42,10.42,0,0,1-3.42-.46l.78-5.15a8.08,8.08,0,0,0,1.61.2,8,8,0,0,0,1.17,0,3.6,3.6,0,0,0,2.27-1,2.87,2.87,0,0,0,.93-2.18V316.26h5.41Z"/>
    <path class="a" d="M241.51,353.43a8.67,8.67,0,0,1-8.73-8.71V316.26h5.41v28.4a3,3,0,0,0,.94,2.23,3.16,3.16,0,0,0,5.4-2.23v-28.4h5.78v28.46a8.29,8.29,0,0,1-2.58,6.19A8.57,8.57,0,0,1,241.51,353.43Z"/>
    <path class="a" d="M266.61,353h-5.54V316.26h5.54Z"/>
    <path class="a" d="M286.12,353.43a8.74,8.74,0,0,1-8.77-8.75V324.57a8.77,8.77,0,1,1,17.53,0v4.19h-5.74v-4.29a3.19,3.19,0,0,0-3.2-3.2,3,3,0,0,0-2.23.94,3.07,3.07,0,0,0-.93,2.26v20.15a3.18,3.18,0,0,0,3.16,3.18,3.11,3.11,0,0,0,2.27-.93,3.06,3.06,0,0,0,.93-2.25v-5.06h5.74v5.12a8.74,8.74,0,0,1-8.76,8.75Z"/>
    <path class="a" d="M305.26,353V316.26H321v5.53H310.8v10.07h7.46v5.53H310.8v10H321V353Z"/>
    <path class="a" d="M349.11,353.43a8.74,8.74,0,0,1-8.78-8.75V324.57a8.78,8.78,0,0,1,15-6.2,8.52,8.52,0,0,1,2.54,6.2v4.19h-5.73v-4.29a3.21,3.21,0,0,0-3.2-3.2,3,3,0,0,0-2.24.94,3.06,3.06,0,0,0-.92,2.26v20.15a3.16,3.16,0,0,0,3.16,3.18,3.19,3.19,0,0,0,3.2-3.18v-5.06h5.73v5.12a8.72,8.72,0,0,1-8.75,8.75Z"/>
    <path class="a" d="M376.9,315.81a8.77,8.77,0,0,1,8.79,8.8v20a8.76,8.76,0,0,1-8.79,8.79,8.36,8.36,0,0,1-6.19-2.58,8.5,8.5,0,0,1-2.55-6.21v-20a8.79,8.79,0,0,1,8.74-8.8Zm3,8.7a3.14,3.14,0,0,0-3.16-3.16,3.07,3.07,0,0,0-2.25.92,3,3,0,0,0-.93,2.24V344.6a3,3,0,0,0,.93,2.23,3.08,3.08,0,0,0,2.25.93,3,3,0,0,0,2.24-.93,3.07,3.07,0,0,0,.92-2.23Z"/>
    <path class="a" d="M390.77,347.45h5.54V353h-5.54Z"/>
    <path class="a" d="M413.68,214.62H403.45L413,183.81c1.93-6.08-7.33-9-9.26-2.9l-10.5,33.71h-8.71c-6.49,0-6.49,9.82,0,9.82h5.67c-3.11,10-5.88,18.6-8.23,26-2.48,3.46-1.5,12-11.11,16.56-3.18,1.52-5.67,2.49-11.06,1.52l6.08-21c1.39-4.84-.27-13.68-8.56-17-12.35-4.87-24.23,6.47-25.22,20.3a4.73,4.73,0,0,0-3-1.79c-8.56-1.38-2.49,11.88-15.34,18-3.17,1.52-5.66,2.49-11,1.52l6.08-21c1.38-4.84-.28-13.68-8.57-17-13.68-5.39-26.8,9.11-25.15,24.87a4.85,4.85,0,0,0-8.56,1.52c-1.73,5.52-3.83,11.18-5.31,16.61l-2.56,8.67c-2.35,8-9,11.61-13.68,10.51-12.3-3.18-1.11-26.26,5.94-55.83a4.89,4.89,0,0,0-7-5.39c-7.18,3.73-18.38,5-25.42,4.56-.56-12.57-15.07-10.64-15.07-.14-.13,1.66.42,4.84,4.15,7.19l-9.26,31.64c-1.93,6.22,7.46,9,9.4,2.76l9.26-31.64v-.14c6.77.7,15.06-.27,22.24-2.07-4.14,16-22,59,7.6,59a21.26,21.26,0,0,0,15.42-7.15,16.86,16.86,0,0,0,3.65,3.84c5.94,4.69,14.78,5,22.11.27,7-4.56,8-10.64,11.33-21.69,6.08,1.24,9.12,1.11,13.54-.14a26.34,26.34,0,0,0,4.82-1.74c-2.18,9.21-2.1,17.59,5.26,23.3,5.94,4.69,14.79,5,22.11.27,7.05-4.56,8-10.64,11.33-21.69,6.08,1.24,9.12,1.11,13.54-.14a27.44,27.44,0,0,0,4.85-1.75c-1.69,8.48-1.44,14.27,1.36,19.16,3.87,6.77,12.3,9.26,19.49,7.46,6.22-1.52,3.87-11.05-2.35-9.53-3,.83-7.05,0-8.71-2.76-3.87-7.05,2.21-22.11,15.89-65.91h13.27C420.17,224.44,420.17,214.62,413.68,214.62Zm-131,76.69c-3.73,2.35-8.15,2.49-10.91.42-3.78-3-3.21-8.27-1.32-14.79l.14-.45c1.49-5.06,3.72-10.85,5.32-17,2.21,7.46,7.6,12,14.65,15.34C287.25,286.48,286.15,289.1,282.69,291.31Zm16.59-46.84c0,.28,0,.69-5.95,20.87-10.77-5.39-9.94-15.62-5.8-21.7C292.23,236.46,300.24,238.94,299.28,244.47Zm40.48,46.84c-3.73,2.35-8.15,2.49-10.92.42-6.77-5.39.42-18,4.15-32.2,2.21,7.46,7.6,12,14.64,15.34C344.32,286.48,343.21,289.1,339.76,291.31Zm16.58-46.84c0,.28,0,.69-5.94,20.87-10.78-5.39-9.95-15.62-5.81-21.7C349.29,236.46,357.31,238.94,356.34,244.47Z"/>
    <path class="a" d="M196.37,298.9c-4.23,15.28-10.67,25.18-16.84,31.51,1.07,3.58,2.13,7.31,3.47,11.23a5.31,5.31,0,1,1-10.15,3.15c-.75-2.5-1.52-4.84-2.17-7a87.33,87.33,0,0,1-8.32,4.26,34.92,34.92,0,0,1-18,2.51A38.61,38.61,0,0,1,120.27,332c-9.8-11.08-11-26.11-3.2-39.9,7-12.39,21.25-19.41,33.56-25.6,1.13-.62,2.09-1.11,3.05-1.59-.1-1.67-.33-3.5-.42-5.31C151,237,162.88,231.93,166.6,231a15.62,15.62,0,0,1,18.22,8.49c1.41,3.32,4.92,15.47-14.33,28.2-1.78,1-3.57,2.13-5.34,3.12,1.88,14.5,4.72,27.16,10.7,47.56,3.92-5.09,7.64-12.31,10.32-22.21a5.29,5.29,0,0,1,6.61-3.72A5.23,5.23,0,0,1,196.37,298.9Zm-28.93,28.26c-6.78-22.45-10.08-36.37-12.24-51.06-11.66,5.82-23.49,11.77-28.83,21.21-5.7,10-4.94,20,1.8,27.71,7.56,8.42,20.13,11.42,29.93,7.34A41.38,41.38,0,0,0,167.44,327.16Zm-3.69-68.52a1.44,1.44,0,0,0,.06.76,2.56,2.56,0,0,1,.81-.51c9.8-6.49,11.84-12.26,10.53-15.12a5.17,5.17,0,0,0-3.89-2.72,5.06,5.06,0,0,0-2,.21C165.87,242.21,162.56,247.22,163.75,258.64Z"/>
    <path class="a" d="M355.4,153.56c-3.87,4.69-5.94,13,.42,22.24,3.45,5.25,8,9.12,10.5,13.68,3.87,7.32,1.66,14-1.52,17.69-8.57,9.67-21.14.41-18-8.16a5.08,5.08,0,0,0,.27-2.48l1-3.18c1.94-6.22-7.46-9.12-9.39-2.9-3.32,10.64-5.53,22.38-15.06,20.59-2.49-.56-5.94-1.25-5.53-9.54,3.59-22.38-23.21-31.64-14.78-41.73,3-3.73,10.36-3.73,12,2.21a11.58,11.58,0,0,1-1.66,9.26c-3.73,5.25,4.28,10.92,8,5.67a20.86,20.86,0,0,0,3-17.55c-3.87-13.82-21-15.34-28.87-5.8-4,4.69-5.95,13,.27,22.24,6.77,10.09,13.13,11.61,12.3,24.74-1.52,7.32-8.29,12.71-15.34,10.08a10.32,10.32,0,0,1-6.19-8.76l2.74-8.51c2.07-6.22-7.32-9.26-9.26-3l-1.09,3.4a5.26,5.26,0,0,0-1.12,1.85,18.36,18.36,0,0,0-1.12,5.1l-.54,1.67c-2.34,7-7.6,9.81-11.19,8.84-8-1.93-3.87-14.09-1-23.35,0,0,10.51-33.3,10.64-33.57,1.94-6.22-7.32-9.12-9.25-3l-.83,2.48c-4.7-5.8-13.13-7.18-19.62-4.56C233,154,232,162.26,222.9,191.55a67.52,67.52,0,0,0-2.26,8.73c-2.39,7.9-9,11.44-13.62,10.34-12.3-3.18-1.11-26.25,5.94-55.82a4.89,4.89,0,0,0-7.05-5.39c-7.19,3.73-18.38,5-25.42,4.56-.56-12.57-15.07-10.64-15.07-.14-.13,1.66.42,4.84,4.15,7.19l-8.4,28.71a5.18,5.18,0,0,0-.3.72c-5.25,17.68-3.18,17.13-24.46,26.39L156,153.56c1.94-6.08-7.46-9-9.26-2.91l-1.1,3.18c-8.57-10.91-27.91-8.84-34.27,9.67-.27.42-11.05,32.48-11.19,33.3-3.87,18.1,13.13,27.36,25.7,20.45l-1.38,4.56c-20.45,8.43-56.38,18.38-49.19,39.52,4.56,13.41,37,25.15,49.88-9.53.83-1.11,6.91-21.42,7.32-22.66,30.81-12.85,31.27-14.39,36.79-32.81a6.91,6.91,0,0,0,.38-.91L179,163.78v-.14c6.77.69,15.06-.27,22.24-2.07-4.14,16-22,59,7.6,59a21,21,0,0,0,14.52-6.24c.14.19.25.39.4.57,6.5,8.43,21,7.61,30-.55,5.78,8.85,19.47,9.49,27.63-.71,6.79,8.22,20.21,11.21,30.26,1a15.79,15.79,0,0,0,10.08,5.94c9.06,1.84,14.73-2,18.58-7.67,6.86,9.08,21.71,12.32,31.85.62,6.77-7.73,7.88-19.06,2.77-28.6-3-5.8-7.88-9.95-11.06-14.51-9.67-14.37,13.54-18.93,11.33-3.87-1,6.5,8.71,7.88,9.68,1.52C387.87,148,365.49,141.4,355.4,153.56ZM117.48,243.92c-9,31.23-31.09,19.35-32.88,14.23-3.32-9.81,20.72-18,36.2-24.18C117.48,244.48,117.48,243.92,117.48,243.92Zm12.16-48.5c-5.8,21.42-22.66,16-19.9,3.18l10.92-31.92c5-14.64,23.21-12.85,18.93,6.5-.83,3.17,1.93-5.67-5.67,18.65A5.24,5.24,0,0,0,129.64,195.42Zm121.31,5c-1.79,9.95-15.75,13.26-19.48,8.43a7.7,7.7,0,0,1-1.35-5.9l2.87-9.72a5.23,5.23,0,0,0,.23-2c8.22-26.56,8.69-30.29,15.66-33,3.59-1.52,11.47-.83,9.26,8.71a4.79,4.79,0,0,0,1.1,4.28C253.16,190.86,252.61,192.11,251,200.4Z"/>
  </g>
</svg>
