<svg xmlns="http://www.w3.org/2000/svg" width="500" height="500" viewBox="0 0 500 500">
  <defs>
    <style>
      .a {
        fill: #fff;
      }
    </style>
  </defs>
  <path class="a" d="M248.8,353.58l-.85-.21L25,298.84V146.42H475V298.85ZM32.18,293.21l216.63,53,219-53V153.6H32.18Z"/>
  <path class="a" d="M248.8,339.22l-.87-.22L39.36,286.86V160.79H460.64V286.87Zm-202.26-58,202.27,50.57,204.65-50.58V168H46.54Z"/>
  <path class="a" d="M82.82,251.46a16.83,16.83,0,0,1-16.93-16.87V179.72H76.37v54.75a5.84,5.84,0,0,0,1.81,4.33,6,6,0,0,0,4.36,1.79,6.11,6.11,0,0,0,6.12-6.12V179.72H99.81v54.87a16.13,16.13,0,0,1-5,12A16.57,16.57,0,0,1,82.82,251.46Z"/>
  <path class="a" d="M130.42,179.72q8.94,0,13.14,4.93c2.45,2.86,3.68,6.87,3.68,12V207a16.61,16.61,0,0,1-5.72,12.75l7.92,31H137.87l-6.49-26.73h-7.13v26.73h-10.7V179.72Zm6.4,17.1q0-6.16-6.12-6.17h-6.45v22.7h6.45a5.86,5.86,0,0,0,4.34-1.81,6,6,0,0,0,1.78-4.36Z"/>
  <path class="a" d="M162.84,250.67v-71h16A20.44,20.44,0,0,1,190.3,183a15.54,15.54,0,0,1,6.23,8.78,24.67,24.67,0,0,1,1,7.53q0,7.14-3.79,11.44a10.68,10.68,0,0,1-3.74,2.77,12.45,12.45,0,0,1,6.06,5.38,21.1,21.1,0,0,1,2.44,7,28.57,28.57,0,0,1,.39,4.93,23.7,23.7,0,0,1-2.55,11.44,16.38,16.38,0,0,1-13.7,8.38Zm11.55-42h4.48q5,0,6.68-4.87a14,14,0,0,0,.62-4.47q0-4.41-2.15-6.68a6.76,6.76,0,0,0-5.15-2.1h-4.48Zm0,31.43h4.48q5.43,0,7.53-5.61a12.28,12.28,0,0,0,.73-4.41c0-4-.75-6.85-2.26-8.67a7.31,7.31,0,0,0-6-2.49h-4.48Z"/>
  <path class="a" d="M224.24,234.36l-2.6,16.31H210.5l12.06-70.95h14.72l11.89,70.95H237.92l-2.51-16.31ZM229.86,196l-4,28h7.92Z"/>
  <path class="a" d="M274.41,179.66l14.2,47.72V179.66h10.7v71H287.82L273.1,205.2v45.47H262.4v-71Z"/>
  <path class="a" d="M336.23,234.36l-2.6,16.31H322.49l12.06-70.95h14.72l11.89,70.95H349.91l-2.51-16.31ZM341.85,196l-4,28h7.92Z"/>
  <path class="a" d="M385.09,250.67h-10.7V179.72h10.7Z"/>
  <path class="a" d="M415.76,179.72q8.94,0,13.13,4.93c2.46,2.86,3.68,6.87,3.68,12V207a16.57,16.57,0,0,1-5.72,12.75l7.93,31H423.21l-6.49-26.73h-7.14v26.73h-10.7V179.72Zm6.39,17.1q0-6.16-6.11-6.17h-6.46v22.7H416a5.84,5.84,0,0,0,4.33-1.81,6,6,0,0,0,1.78-4.36Z"/>
  <path class="a" d="M188.84,279.68H108.38a3.59,3.59,0,1,1,0-7.18h80.46a3.59,3.59,0,1,1,0,7.18Z"/>
  <path class="a" d="M389.11,279.68H308.64a3.59,3.59,0,1,1,0-7.18h80.47a3.59,3.59,0,0,1,0,7.18Z"/>
  <path class="a" d="M230.71,279.68H230c-13.41-.36-23.75-11.31-24.19-11.77a3.59,3.59,0,1,1,5.25-4.9c.17.17,8.84,9.24,19.16,9.49,5.07.17,9.77-1.92,14.08-6.08,9.8-9.45,19.57-10.86,26.06-10.4,10.21.74,18,6.3,20.75,9.86a3.59,3.59,0,1,1-5.68,4.39c-1.53-2-7.57-6.5-15.59-7.09-7.3-.54-14.22,2.3-20.56,8.41C243.74,277,237.49,279.68,230.71,279.68Z"/>
  <path class="a" d="M230.71,302.48H230c-13.41-.35-23.75-11.3-24.19-11.77a3.59,3.59,0,0,1,5.25-4.9c.17.18,8.84,9.24,19.16,9.5,5.07.16,9.77-1.92,14.08-6.08,9.8-9.45,19.56-10.87,26.06-10.4,10.21.74,18,6.3,20.75,9.86a3.59,3.59,0,0,1-5.68,4.39c-1.53-2-7.57-6.51-15.59-7.09-7.34-.55-14.22,2.3-20.56,8.41C243.74,299.76,237.49,302.48,230.71,302.48Z"/>
</svg>
