<?xml version="1.0" encoding="utf-8"?>
<!-- Generator: Adobe Illustrator 24.3.0, SVG Export Plug-In . SVG Version: 6.00 Build 0)  -->
<svg version="1.1" xmlns="http://www.w3.org/2000/svg" xmlns:xlink="http://www.w3.org/1999/xlink" x="0px" y="0px"
	 viewBox="0 0 1000 400" style="enable-background:new 0 0 1000 400;" xml:space="preserve">
<style type="text/css">
	.st0{display:none;}
	.st1{display:inline;}
	.st2{fill:#FFFFFF;}
	.st3{display:inline;fill:#1A1A1A;}
	.st4{fill:#CF222A;}
	.st5{fill:#72815A;}
</style>
<g id="Guides">
</g>
<g id="Grass__x26__Root" class="st0">
	<g class="st1">
		<rect width="1000" height="400"/>
		<g>
			<path class="st2" d="M500,350c-82.7,0-150-67.3-150-150S417.3,50,500,50s150,67.3,150,150S582.7,350,500,350z M500,55.2
				c-79.8,0-144.8,64.9-144.8,144.8c0,79.8,64.9,144.8,144.8,144.8c79.8,0,144.8-64.9,144.8-144.8C644.8,120.2,579.8,55.2,500,55.2z
				"/>
			<path class="st2" d="M481.4,263.1c0,1.6-0.6,3-1.7,4.1c-1.1,1.1-2.5,1.7-4.1,1.7c-0.9,0-1.7-0.1-2.3-0.3l0.5-3.4
				c0.4,0.1,0.8,0.1,1.1,0.1c0.2,0,0.4,0,0.8,0c0.6,0,1.1-0.3,1.5-0.7c0.4-0.4,0.6-0.9,0.6-1.5v-19.1h3.6V263.1z"/>
			<path class="st2" d="M494.3,269c-1.6,0-3-0.6-4.1-1.7c-1.1-1.1-1.7-2.5-1.7-4.1v-19h3.6v18.9c0,0.6,0.2,1.1,0.6,1.5
				s0.9,0.6,1.5,0.6c0.6,0,1.1-0.2,1.5-0.6c0.4-0.4,0.6-0.9,0.6-1.5v-18.9h3.9v19c0,1.6-0.6,3-1.7,4.1
				C497.3,268.4,496,269,494.3,269z"/>
			<path class="st2" d="M511.1,268.6h-3.7v-24.5h3.7V268.6z"/>
			<path class="st2" d="M524.1,269c-1.6,0-3-0.6-4.1-1.7c-1.1-1.1-1.7-2.5-1.7-4.1v-13.4c0-1.6,0.6-3,1.7-4.1
				c1.1-1.1,2.5-1.7,4.1-1.7c1.6,0,3,0.6,4.1,1.7c1.1,1.1,1.7,2.5,1.7,4.1v2.8h-3.8v-2.9c0-0.6-0.2-1.1-0.6-1.5
				c-0.4-0.4-0.9-0.6-1.5-0.6c-0.6,0-1.1,0.2-1.5,0.6c-0.4,0.4-0.6,0.9-0.6,1.5v13.4c0,0.6,0.2,1.1,0.6,1.5c0.4,0.4,0.9,0.6,1.5,0.6
				c0.6,0,1.1-0.2,1.5-0.6c0.4-0.4,0.6-0.9,0.6-1.5v-3.4h3.8v3.4c0,1.6-0.6,3-1.7,4.1C527.1,268.4,525.7,269,524.1,269z"/>
			<path class="st2" d="M536.8,268.6v-24.5h10.5v3.7h-6.8v6.7h5v3.7h-5v6.7h6.8v3.7H536.8z"/>
			<path class="st2" d="M566.1,269c-1.6,0-3-0.6-4.1-1.7c-1.1-1.1-1.7-2.5-1.7-4.1v-13.4c0-1.6,0.6-3,1.7-4.1
				c1.1-1.1,2.5-1.7,4.1-1.7c1.6,0,3,0.6,4.1,1.7c1.1,1.1,1.7,2.5,1.7,4.1v2.8h-3.8v-2.9c0-0.6-0.2-1.1-0.6-1.5
				c-0.4-0.4-0.9-0.6-1.5-0.6c-0.6,0-1.1,0.2-1.5,0.6c-0.4,0.4-0.6,0.9-0.6,1.5v13.4c0,0.6,0.2,1.1,0.6,1.5c0.4,0.4,0.9,0.6,1.5,0.6
				c0.6,0,1.1-0.2,1.5-0.6c0.4-0.4,0.6-0.9,0.6-1.5v-3.4h3.8v3.4c0,1.6-0.6,3-1.7,4.1C569,268.4,567.7,269,566.1,269z"/>
			<path class="st2" d="M584.6,243.9c1.6,0,3,0.6,4.2,1.7c1.1,1.1,1.7,2.5,1.7,4.1v13.4c0,1.6-0.6,3-1.7,4.2
				c-1.1,1.1-2.5,1.7-4.1,1.7c-1.6,0-3-0.6-4.1-1.7c-1.1-1.1-1.7-2.5-1.7-4.1v-13.4c0-1.6,0.6-3,1.7-4.2
				C581.6,244.4,583,243.9,584.6,243.9z M586.6,249.7c0-0.6-0.2-1.1-0.6-1.5c-0.4-0.4-0.9-0.6-1.5-0.6c-0.6,0-1.1,0.2-1.5,0.6
				c-0.4,0.4-0.6,0.9-0.6,1.5v13.4c0,0.6,0.2,1.1,0.6,1.5c0.4,0.4,0.9,0.6,1.5,0.6c0.6,0,1.1-0.2,1.5-0.6c0.4-0.4,0.6-0.9,0.6-1.5
				V249.7z"/>
			<path class="st2" d="M593.8,265h3.7v3.7h-3.7V265z"/>
			<path class="st2" d="M609.1,176.4h-6.8l6.4-20.5c1.3-4.1-4.9-6-6.2-1.9l-7,22.5h-5.8c-4.3,0-4.3,6.5,0,6.5h3.8
				c-2.1,6.7-3.9,12.4-5.5,17.3c-1.7,2.3-1,8-7.4,11c-2.1,1-3.8,1.7-7.4,1l4.1-14c0.9-3.2-0.2-9.1-5.7-11.3
				c-8.2-3.2-16.2,4.3-16.8,13.5c-0.5-0.6-1.2-1.1-2-1.2c-5.7-0.9-1.7,7.9-10.2,12c-2.1,1-3.8,1.7-7.4,1l4.1-14
				c0.9-3.2-0.2-9.1-5.7-11.3c-9.1-3.6-17.9,6.1-16.8,16.6c-1.7-2.1-5-1.6-5.7,1c-1.2,3.7-2.5,7.5-3.5,11.1l-1.7,5.8
				c-1.6,5.3-6,7.7-9.1,7c-8.2-2.1-0.7-17.5,4-37.2c0.6-2.7-2.2-4.9-4.7-3.6c-4.8,2.5-12.3,3.3-16.9,3c-0.4-8.4-10-7.1-10-0.1
				c-0.1,1.1,0.3,3.2,2.8,4.8l-6.2,21.1c-1.3,4.1,5,6,6.3,1.8l6.2-21.1v-0.1c4.5,0.5,10-0.2,14.8-1.4c-2.8,10.7-14.6,39.3,5.1,39.3
				c3.6,0,7.4-1.6,10.3-4.8c0.6,0.9,1.4,1.8,2.4,2.6c4,3.1,9.9,3.3,14.7,0.2c4.7-3,5.3-7.1,7.6-14.5c4.1,0.8,6.1,0.7,9-0.1
				c1.1-0.3,2.2-0.7,3.2-1.2c-1.5,6.1-1.4,11.7,3.5,15.5c4,3.1,9.9,3.3,14.7,0.2c4.7-3,5.3-7.1,7.6-14.5c4.1,0.8,6.1,0.7,9-0.1
				c1.1-0.3,2.2-0.7,3.2-1.2c-1.1,5.7-1,9.5,0.9,12.8c2.6,4.5,8.2,6.2,13,5c4.1-1,2.6-7.4-1.6-6.4c-2,0.6-4.7,0-5.8-1.8
				c-2.6-4.7,1.5-14.7,10.6-43.9h8.8C613.4,183,613.4,176.4,609.1,176.4z M521.8,227.5c-2.5,1.6-5.4,1.7-7.3,0.3
				c-2.5-2-2.1-5.5-0.9-9.9l0.1-0.3c1-3.4,2.5-7.2,3.6-11.3c1.5,5,5.1,8,9.8,10.2C524.8,224.3,524.1,226.1,521.8,227.5z
				 M532.9,196.3c0,0.2,0,0.5-4,13.9c-7.2-3.6-6.6-10.4-3.9-14.5C528.2,191,533.5,192.6,532.9,196.3z M559.8,227.5
				c-2.5,1.6-5.4,1.7-7.3,0.3c-4.5-3.6,0.3-12,2.8-21.5c1.5,5,5.1,8,9.8,10.2C562.9,224.3,562.1,226.1,559.8,227.5z M570.9,196.3
				c0,0.2,0,0.5-4,13.9c-7.2-3.6-6.6-10.4-3.9-14.5C566.2,191,571.5,192.6,570.9,196.3z"/>
			<path class="st2" d="M464.2,232.6c-2.8,10.2-7.1,16.8-11.2,21c0.7,2.4,1.4,4.9,2.3,7.5c0.6,1.9-0.5,3.9-2.3,4.4
				c-1.9,0.6-3.9-0.5-4.4-2.3c-0.5-1.7-1-3.2-1.4-4.7c-2.4,1.4-4.4,2.3-5.6,2.8c-3.8,1.7-8,2.2-12,1.7c-6-0.7-11.8-3.6-16-8.3
				c-6.5-7.4-7.3-17.4-2.1-26.6c4.7-8.3,14.2-12.9,22.4-17.1c0.8-0.4,1.4-0.7,2-1.1c-0.1-1.1-0.2-2.3-0.3-3.5
				c-1.5-15.1,6.4-18.5,8.9-19.1c4.9-1.3,10.1,1.1,12.1,5.7c0.9,2.2,3.3,10.3-9.6,18.8c-1.2,0.7-2.4,1.4-3.6,2.1
				c1.2,9.7,3.1,18.1,7.1,31.7c2.6-3.4,5.1-8.2,6.9-14.8c0.5-1.9,2.5-3,4.4-2.5C463.7,228.8,464.8,230.8,464.2,232.6z M445,251.4
				c-4.5-15-6.7-24.2-8.2-34c-7.8,3.9-15.7,7.8-19.2,14.1c-3.8,6.7-3.3,13.3,1.2,18.5c5,5.6,13.4,7.6,20,4.9
				C440.2,254.3,442.4,253.3,445,251.4z M442.5,205.8c0,0.2,0,0.3,0,0.5c0.2-0.2,0.3-0.3,0.5-0.3c6.5-4.3,7.9-8.2,7-10.1
				c-0.5-1-1.5-1.7-2.6-1.8c-0.4,0-0.8,0-1.3,0.1C443.9,194.8,441.7,198.1,442.5,205.8z"/>
			<path class="st2" d="M570.3,135.7c-2.6,3.1-4,8.7,0.3,14.8c2.3,3.5,5.3,6.1,7,9.1c2.6,4.9,1.1,9.3-1,11.8
				c-5.7,6.4-14.1,0.3-12-5.4c0.2-0.6,0.3-1.1,0.2-1.7c0.2-0.7,0.4-1.5,0.6-2.1c1.3-4.1-5-6.1-6.3-1.9c-2.2,7.1-3.7,14.9-10,13.7
				c-1.7-0.4-4-0.8-3.7-6.4c2.4-14.9-15.5-21.1-9.9-27.8c2-2.5,6.9-2.5,8,1.5c0.6,1.9,0.1,4.5-1.1,6.2c-2.5,3.5,2.9,7.3,5.3,3.8
				c2.4-3.3,3.1-7.8,2-11.7c-2.6-9.2-14-10.2-19.3-3.9c-2.7,3.1-4,8.7,0.2,14.8c4.5,6.7,8.8,7.7,8.2,16.5c-1,4.9-5.5,8.5-10.2,6.7
				c-2.3-0.9-4-3.4-4.1-5.8l1.8-5.7c1.4-4.1-4.9-6.2-6.2-2l-0.7,2.3c-0.3,0.3-0.6,0.7-0.7,1.2c-0.4,1.1-0.7,2.3-0.7,3.4l-0.4,1.1
				c-1.6,4.7-5.1,6.5-7.5,5.9c-5.3-1.3-2.6-9.4-0.6-15.6c0,0,7-22.2,7.1-22.4c1.3-4.1-4.9-6.1-6.2-2l-0.6,1.7
				c-3.1-3.9-8.8-4.8-13.1-3c-8.2,3.2-8.8,8.8-14.9,28.3c-0.6,1.8-1.2,3.8-1.5,5.8c-1.6,5.3-6,7.6-9.1,6.9c-8.2-2.1-0.7-17.5,4-37.2
				c0.6-2.7-2.2-4.9-4.7-3.6c-4.8,2.5-12.3,3.3-16.9,3c-0.4-8.4-10-7.1-10-0.1c-0.1,1.1,0.3,3.2,2.8,4.8l-5.6,19.1
				c-0.1,0.2-0.1,0.3-0.2,0.5c-3.5,11.8-2.1,11.4-16.3,17.6l13.1-42.2c1.3-4.1-5-6-6.2-1.9l-0.7,2.1c-5.7-7.3-18.6-5.9-22.8,6.4
				c-0.2,0.3-7.4,21.6-7.5,22.2c-2.6,12.1,8.8,18.2,17.1,13.6l-0.9,3c-13.6,5.6-37.6,12.3-32.8,26.3c3,8.9,24.7,16.8,33.3-6.4
				c0.6-0.7,4.6-14.3,4.9-15.1c20.5-8.6,20.8-9.6,24.5-21.9c0.1-0.2,0.2-0.4,0.3-0.6l6.2-21.1v-0.1c4.5,0.5,10-0.2,14.8-1.4
				c-2.8,10.7-14.6,39.3,5.1,39.3c3.3,0,6.9-1.4,9.7-4.2c0.1,0.1,0.2,0.3,0.3,0.4c4.3,5.6,14,5.1,20-0.4c3.9,5.9,13,6.3,18.4-0.5
				c4.5,5.5,13.5,7.5,20.2,0.7c1.8,2.4,4.3,3.5,6.7,4c6,1.2,9.8-1.3,12.4-5.1c4.6,6.1,14.5,8.2,21.2,0.4c4.5-5.2,5.2-12.7,1.8-19.1
				c-2-3.9-5.2-6.6-7.4-9.7c-6.4-9.6,9-12.6,7.6-2.6c-0.6,4.3,5.8,5.3,6.4,1C591.9,132,577,127.6,570.3,135.7z M411.7,195.9
				c-6,20.8-20.7,12.9-21.9,9.5c-2.2-6.5,13.8-12,24.1-16.1C411.7,196.3,411.7,195.9,411.7,195.9z M419.8,163.6
				c-3.9,14.3-15.1,10.7-13.3,2.1l7.3-21.3c3.3-9.8,15.5-8.6,12.6,4.3c-0.6,2.1,1.3-3.8-3.8,12.4
				C421.3,161.4,420.1,162.3,419.8,163.6z M500.6,166.9c-1.2,6.6-10.5,8.8-13,5.6c-0.8-1.1-1.1-2.4-0.9-3.9l1.9-6.5
				c0.1-0.5,0.2-0.9,0.2-1.3c5.5-17.7,5.8-20.2,10.4-22c2.4-1,7.6-0.6,6.2,5.8c-0.3,1,0.1,2.1,0.7,2.9
				C502.1,160.6,501.7,161.4,500.6,166.9z"/>
		</g>
	</g>
</g>
<g id="Northwest_Safe" class="st0">
	<rect class="st3" width="1000" height="400"/>
	<g class="st1">
		<polygon class="st4" points="533.8,235.5 572,236.4 586.7,232 596.6,240.7 622.1,236.4 655.8,236.4 668.3,236.4 675.1,224.5 
			681.9,223 684.1,229.5 705.8,239.8 728,233.3 741.4,213.9 746.4,197.6 733.3,187 705.2,189.4 703.9,180 674.9,177.8 660.2,187.9 
			608.2,188.1 604.2,181.1 565.6,179.7 544.1,192.2 540.6,205 535.3,213.9 525.9,233.6 		"/>
		<g>
			<path class="st2" d="M334.5,261.6c-0.1-4.4-0.2-8.4-0.3-12.4c-0.1,0-0.3-0.1-0.5-0.1c-0.3,0.6-0.7,1.1-1,1.7
				c-1.5,2.9-3,5.9-4.3,8.9c-0.7,1.6-1.6,2-3.2,2c-13.3-0.1-26.7,0-40,0c-4.3,0-8.6,0-12.9,0c-0.5,0-0.9-0.1-1.3-0.1
				c-0.1-0.2-0.1-0.3-0.2-0.3c0-0.1-0.1-0.2,0-0.2c0.4-0.9,0.7-1.7,1.1-2.6c9.5-19.9,18.9-39.7,28.5-59.9c1.6,0.6,3.2,1.1,4.7,1.6
				c0.2,0.1,0.6,0.3,0.6,0.4c-0.2,2.1,2,1.8,3.1,3c-7.6,16-15.2,32-22.9,48.3c0.9,0.1,1.5,0.2,2.1,0.2c10.4,0,20.9,0,31.3,0
				c1.4,0,2.3-0.3,2.9-1.7c6.1-13,12.3-25.9,18.5-38.8c0.6-1.3,1.1-2.6,2-3.8c0.2,7.3,0.3,14.7,0.6,22c0.2,7.3,0.5,14.7,0.7,22.2
				c1,0.1,1.8,0.1,2.6,0.1c12,0,24,0,36,0c1.8,0,2.6-0.6,3.3-2.2c12.7-26.7,25.4-53.3,38.1-80c0.3-0.6,0.5-1.3,0.9-2.1
				c-0.7-0.1-1.2-0.3-1.7-0.3c-10.8,0-21.6,0-32.5,0c-1.3,0-2,0.3-2.5,1.5c-7.2,15.2-14.4,30.5-21.6,45.7c-0.3,0.5-0.5,1-1.1,2
				c0.6-16.7,1.2-32.7,1.7-49c-0.8-0.1-1.4-0.3-2-0.3c-12.5,0-24.9,0-37.4,0c-1.4,0-2.1,0.5-2.7,1.7c-2.3,4.8-4.6,9.6-7.1,14.6
				c-2.1-0.4-4.1-0.8-6.2-1.2c-0.3,0.4-0.7,0.8-1.1,1.2c-0.9-0.3-1.8-0.5-2.8-0.8c0.3-0.7,0.5-1.3,0.7-1.9
				c3.4-7.1,6.8-14.3,10.2-21.5c0.6-1.3,1.3-1.8,2.8-1.8c17.8,0,35.6,0,53.4,0c0.6,0,1.2,0.1,2,0.1c0,3.7,0,7.2,0,11.2
				c0.5-0.7,0.8-1,1-1.4c1.4-2.8,2.8-5.6,4-8.5c0.5-1.1,1.2-1.6,2.3-1.5c0.5,0.1,1.1,0,1.6,0c68.8,0,137.7,0,206.5,0c1,0,2,0,3.5,0
				c-4.2,5.9-8.1,11.4-12.3,17.3c11.2,0.6,21.7,2.2,32.4,4c-0.4,1.1-0.7,2.1-1.1,3.3c1.9,0,3.6,0,5.3,0c1.2,0,2.4,0,3.5,0.2
				c3.5,0.9,7,0.8,10.5,0.8c7.2,0,14.4,0,21.6,0c1.1,0,2.1-0.1,3-1c4.6-5.1,10.4-7.6,17.1-8.5c6.1-0.8,12.2-0.5,18.3,0.1
				c5.8,0.6,11.7,1.5,17.5,2.3c0.3,0,0.6,0.2,1.1,0.3c-0.9,2-1.8,3.9-2.8,6c2.8-0.2,5.4-0.4,8.1-0.5c6.4-0.2,12.7-0.2,18.9,1.6
				c5.1,1.5,9.5,3.9,12.3,8.8c2,3.5,2.8,7.1,2.3,11.1c-0.5,3.8-1.6,7.3-3.4,10.7c-1.9,3.5-3.8,7-5.9,10.5c-0.4,0.7-1.2,1.1-1.8,1.7
				c-0.5,0.5-1,1-1.4,1.5c-2.3,3.1-4.5,6.2-6.7,9.4c-0.8,1.1-1.7,1.7-3,2c-8,2.1-16.1,3.2-24.4,3.4c-5.1,0.2-10.2-0.1-15.1-1.5
				c-6-1.7-10.3-5.5-12.6-11.4c-0.1-0.3-0.2-0.6-0.4-0.9c0-0.1-0.1-0.1-0.4-0.3c-2.3,4.1-4,8.5-6.3,12.8c-1,0-1.9,0-2.8,0
				c-15.4,0-30.7,0.1-46.1,0c-5.8,0-11.6,0.2-17.3,1.1c-3.4,0.5-6.9,0-10.2-0.9c-3-0.8-5.6-2.3-7.9-4.6c-0.7,0.3-1.3,0.6-1.9,1
				c-4.8,2.7-9.9,4.1-15.4,4.5c-10.1,0.8-20,0.4-30-0.9c-1.3-0.2-2,0.2-2.7,1.2c-3.8,5.4-7.7,10.7-11.4,16.2
				c-1.2,1.8-2.5,2.5-4.8,2.5c-33.1-0.1-66.2-0.1-99.3-0.1c-5.4,0-10.8,0-16.2,0c-0.8,0-1.7-0.1-2.8-0.1c2.3-11.8,4.6-23.3,6.9-35.1
				c-1.1,0.6-1.3,1.4-1.6,2.1c-4.7,10-9.5,20-14.2,29.9c-0.3,0.7-0.7,1.4-1,2.1c-0.3,0.8-0.9,1.1-1.7,1c-0.5,0-1.1,0-1.6,0
				c-16.9,0-33.7,0-50.6,0C336.7,261.6,335.8,261.6,334.5,261.6z M489.6,195.7c0.1,0.1,0.2,0.2,0.2,0.2
				c-5.2,18.5-10.3,37.1-15.5,55.8c0.8,0.1,1.4,0.2,1.9,0.2c13.2,0,26.5,0,39.7,0c1.3,0,2-0.5,2.7-1.4c2.1-3,4.2-6,6.3-9.1
				c0.3-0.4,0.5-0.9,0.8-1.4c-2.6-0.9-5.3-0.7-7.9-1.8c4.6-9.9,9.1-19.6,13.7-29.4c0.7-0.1,1.4-0.2,2.2-0.3c0.1-3.8,1-7.4,2.4-10.8
				c4.4-10.7,11.5-18.5,23.1-21.1c3.6-0.8,7.3-1,10.9-1.4c1.3-0.1,2.2-0.4,2.9-1.6c1-1.6,2.2-3.1,3.3-4.6c0.3-0.4,0.4-0.9,0.7-1.5
				c-0.5-0.1-0.8-0.1-1.1-0.1c-12.7,0-25.4,0-38.1,0c-1.5,0-2.1,0.7-2.7,1.8c-10.5,18.2-21,36.4-31.6,54.5c-0.3,0.5-0.6,0.9-0.9,1.4
				c2.7-9.6,5.6-19.1,8.5-28.6c2.8-9.6,5.8-19.1,8.5-28.9c-1-0.1-1.6-0.1-2.2-0.1c-10.8,0-21.6,0-32.5,0c-0.2,0-0.3,0-0.5,0
				c-1.1-0.1-1.8,0.2-2.2,1.3c-0.2,0.5-0.5,1-0.8,1.5c-9.4,17.8-18.8,35.6-28.2,53.4c-0.3,0.6-0.7,1.1-1,1.6c-0.1,0-0.1-0.1-0.2-0.1
				c5.2-19.1,10.3-38.2,15.5-57.4c-12.7,0-25,0-37.5,0c-5.4,26.8-10.7,53.4-16,80.1c-0.2,1.2-0.4,2.5-0.6,3.7c0,0.1,0.1,0.1,0.1,0.2
				c0,0.1,0.1,0.1,0.2,0.3c0.4,0,0.8,0.1,1.3,0.1c14.1,0,28.2,0,42.3,0c1.5,0,2.1-0.7,2.7-1.8c9.5-17.5,19-35,28.5-52.5
				C488.9,197,489.3,196.4,489.6,195.7z M532.1,230.9c0.8,0.2,1.3,0.4,1.7,0.4c7.5,1.3,15.1,1.9,22.7,2.2c5.5,0.2,11,0,16.4-1.2
				c9.4-2.1,16.6-10.6,17.2-20.2c0.2-3.1-0.9-5.2-3.9-6.2c-1.8-0.6-3.8-0.9-5.7-1c-3.4-0.2-6.7-0.1-10.1-0.1c-0.7,0-1.4,0-2.1-0.1
				c-1.6-0.3-2.1-1.5-1-2.7c0.8-0.8,1.9-1.4,3-1.6c5.7-1,11.4-0.9,17.1-0.3c2.6,0.3,5.2,0.8,8,1.2c2.3-4.8,4.5-9.5,6.8-14.3
				c-0.7-0.2-1-0.3-1.4-0.3c-3-0.4-6.1-0.8-9.1-1.1c-8.6-0.7-17.2-1.1-25.8-0.3c-13.4,1.2-20.1,11.2-22,20.6c-1.2,6,1.4,8.5,6.9,9.5
				c0.7,0.1,1.4,0.2,2.1,0.3c3.2,0.1,6.4,0.2,9.6,0.2c0.7,0,1.4,0,2.1,0c1.6,0.2,2.3,1.6,1.3,2.9c-0.4,0.5-1,1-1.7,1.2
				c-0.9,0.3-2,0.6-3,0.6c-4.8,0-9.5-0.1-14.3-0.3c-3.1-0.2-6.2-0.6-9.4-1C535.6,223.1,533.9,226.9,532.1,230.9z M616.5,231.7
				c0.7,0.1,1.1,0.2,1.5,0.2c5.2,0,10.3,0,15.5,0c1.3,0,1.9-0.6,2.5-1.7c5.6-11.8,11.2-23.5,16.7-35.2c0.2-0.5,0.3-1.1,0.6-1.8
				c-6.5,0-12.6,0-18.9,0c-0.5,1.1-1,2.2-1.5,3.2c-0.5,1.1-1,2.2-1.7,3.7c-1.1-5.4-3.3-7.4-8.4-7.9c-1.5-0.1-3-0.1-4.5-0.1
				c-5.4,0.1-10.1,1.9-14,5.8c-7.3,7.2-11.6,15.9-13.3,25.9c-0.1,0.7-0.1,1.4,0,2.1c0.6,4.2,3.6,6.9,8.3,7.2
				c7.5,0.5,13.9-1.7,19.1-7.2c0.4-0.4,0.8-0.8,1.2-1.1c0.1,0.1,0.2,0.1,0.2,0.2C618.7,227.1,617.7,229.2,616.5,231.7z M732.4,220.6
				c-3.7,0.5-7.2,1.1-10.6,1.5c-3,0.3-6.1,0.5-9.1,0.6c-1.5,0-3-0.2-4.4-0.6c-1.6-0.4-2.2-1.7-1.9-3.3c0.3-1.8,0.6-2,2.7-2.1
				c0.5,0,0.9,0,1.4,0c7.8,0,15.7,0,23.5,0c1.6,0,2.6-0.5,3.3-2c0.9-2.1,2.2-4,3-6.1c0.8-1.9,1.5-3.8,1.8-5.8
				c0.7-3.8-0.9-6.9-4.4-8.5c-1.7-0.8-3.5-1.4-5.3-1.8c-6.5-1.2-13.1-1-19.7-0.4c-7.4,0.7-13.2,4.3-17.6,10.1
				c-3.5,4.6-6.2,9.6-7.8,15.2c-0.6,1.9-0.9,4-1,6c-0.2,3.9,1.4,6.6,5.1,7.9c2.4,0.9,5,1.4,7.5,1.6c8.6,0.6,17-0.5,25.4-2.3
				c1-0.2,1.7-0.6,2.3-1.5c1.7-2.5,3.4-4.9,5.1-7.3C732,221.6,732.1,221.2,732.4,220.6z M652.6,215.6c-0.4,0.9-0.6,1.6-0.9,2.3
				c-1.9,3.9-3.7,7.8-5.6,11.7c-0.3,0.7-0.6,1.4-0.9,2.2c1,0.1,1.6,0.1,2.2,0.1c4.9,0,9.9-0.1,14.8,0c1.6,0,2.4-0.6,3-2
				c2-4.3,4.1-8.5,6-12.7c0.7-1.4,1.5-1.9,3-1.9c3.1,0.1,6.3,0,9.5,0c2.1-4.2,4.1-8.3,6-12.9c-3.9,0-7.3,0-10.9,0
				c0.9-4.8,3-6.9,7.5-7.1c1.2-0.1,2.3,0,3.5,0.1c1.1,0,2.2,0.1,3.3,0.2c1.8-3.8,3.6-7.4,5.4-11.3c-7.5-0.9-14.5-1.6-21.7-0.7
				c-5.9,0.7-10.2,3.7-13,8.9c-1.4,2.7-2.7,5.5-4.1,8.2c-0.3,0.6-0.7,1.2-1.1,1.9c-1.6,0-3.2,0-4.8,0c-2,4.2-3.9,8.3-6,12.6
				c1,0.1,1.7,0.1,2.4,0.2C651,215.5,651.6,215.5,652.6,215.6z"/>
			<path class="st2" d="M263.4,261.8c-7.3,0-14.1,0-21,0c0-0.6-0.2-1.1-0.1-1.6c0.7-7.6,1.4-15.1,2.1-22.7c0.1-1.3,0.4-2.3,1.8-2.5
				c0.5-11.5,1.1-23,1.6-34.7c-3.6-1.1-7.2-2.2-10.2-4.5c-2.9-2.3-5.4-5-7.5-8.4c-11,3.9-21.9,7.7-33,11.5c0,0.9,0.1,1.7-1.1,2.2
				c-7.6,3-15.1,6.2-22.6,9.3c-0.1,0.1-0.3,0-0.8,0c-2-6.5-4.1-13.1-6.2-19.8c0.8-0.3,1.2-0.5,1.8-0.6c7.4-1.6,14.7-3.1,22.1-4.6
				c0.9-0.2,1.9-0.7,2.7,0.6c0.2,0.3,1.3,0.1,1.9,0c5.5-1.4,10.9-2.9,16.3-4.4c4.7-1.3,9.4-2.5,14.1-3.8c0.4-0.1,0.9-0.3,1.6-0.5
				c-0.7-7.7,1.6-14.4,6.9-20.3c-7.1-9.2-14.2-18.3-21.3-27.6c-1.1,0.5-1.9,0.4-2.7-0.6c-5.2-6.1-10.5-12.1-15.7-18.1
				c-0.1-0.2-0.2-0.4-0.5-0.9c5.6-4,11.2-8.1,17.1-12.3c4.5,7.7,8.9,15.1,13.3,22.8c-0.6,0.8-1,1.6-0.2,2.8
				c6,8.9,11.9,17.9,17.9,26.8c0.2,0.3,0.4,0.5,0.7,0.9c6.8-2.6,13.7-2.8,20.7,0.1c6.6-9.7,13.2-19.2,19.7-28.9
				c-0.3-0.8-1.2-1.3-0.5-2.5c4.2-6.9,8.3-13.9,12.4-20.8c0.2-0.3,0.4-0.4,0.8-0.8c5.6,4.1,11.1,8.1,16.9,12.3
				c-5.9,6.7-11.6,13.2-17.3,19.8c-0.6-0.1-1.1-0.2-1.8-0.4c-7.1,8.9-14.3,17.9-21.6,27.1c2.3,3,4.5,6,5.7,9.6
				c1.2,3.6,1.3,7.2,1.2,11c1.9,0.5,3.7,1.1,5.5,1.6c8.6,2.3,17.3,4.6,25.9,6.8c1.1,0.3,2.2,0.9,3.1-0.4c0.2-0.3,1.3-0.1,2,0
				c6.7,1.4,13.5,2.8,20.2,4.3c1.1,0.2,2.3,0.5,3.7,0.8c-2,6.8-4,13.3-6.1,20.2c-8.3-3.3-16.3-6.7-24.4-10.1
				c-0.1-0.6-0.2-1.1-0.3-1.8c-10.8-3.8-21.7-7.6-32.8-11.5c-4,6.6-9.7,10.9-17.3,12.7c0.3,11.7,0.7,23.2,1,34.7
				c0.7,0.3,1.1,0.5,1.7,0.8C261.7,244.3,262.6,252.9,263.4,261.8z"/>
			<path class="st2" d="M187.7,183.9c-3.9,0.8-7.5,1.6-11.1,2.3c-6.5-35.8-6.6-71.6-3.2-107.6c3.8-0.8,7.6-1.6,11.4-2.4
				c18-3.7,36.1-7.5,54.1-11.2c4-0.8,8-1.7,12-2.4c1.2-0.2,2.5-0.2,3.7,0c15.5,3.2,31,6.4,46.5,9.6c9.4,1.9,18.7,3.9,28.1,5.8
				c1,0.2,2,0.4,3.1,0.7c1.3,17.9,2.4,35.8,2.1,53.6c-0.2,7.7-0.5,15.3-1.4,23.1c-3.9,0-7.6,0-11.6,0c0.4-5.6,1-11.1,1.2-16.6
				c0.3-5.6,0.4-11.1,0.4-16.7c0-5.5-0.2-11-0.5-16.5c-0.2-5.6-0.6-11.1-0.9-17c-20.7-4.5-41.4-8.9-62.4-13.3
				c-0.2,2.4-0.4,4.6-0.5,6.8c-0.8,12.5-1.6,25-2.6,37.5c-0.3,4.5-1.1,9-1.8,13.5c-0.2,1.4-0.8,2.8-1.3,4.2c-0.2,0-0.4,0-0.6,0
				c-0.3-0.8-0.7-1.7-0.9-2.5c-0.6-4.3-1.4-8.5-1.8-12.8c-0.9-11.6-1.7-23.1-2.5-34.7c-0.3-3.8-0.6-7.6-0.8-11.8
				c-0.8,0.1-1.6,0.1-2.3,0.3c-15.4,3.3-30.8,6.6-46.2,9.9c-4,0.9-8,1.7-11.9,2.6c-0.7,0.1-1.3,0.4-2,0.6c-1,16-1.8,31.8-1.1,47.6
				C183.5,152.2,185.7,167.9,187.7,183.9z"/>
			<path class="st2" d="M181.4,209.4c3.5-1.5,7-2.9,10.6-4.4c0.8,3,1.6,5.8,2.4,8.5c4,14.1,9.5,27.5,15.8,40.7
				c9,18.8,20.4,36,32.8,52.6c2.7,3.6,5.4,7.1,8.1,10.7c0.5,0.6,1,1.2,1.7,2.1c0.5-0.6,0.8-1.1,1.2-1.6
				c13.7-16.3,25.7-33.8,35.8-52.5c0.9-1.6,1.7-2.3,3.6-2.2c3.4,0.2,6.9,0,10.4,0c-0.6,3.2-13.5,25.1-22.8,38.9
				c-8.4,12.5-18.1,24-28.5,35.5c-0.5-0.7-0.9-1.3-1.3-1.9c-14.3-15.9-26.9-33-38-51.3c-7.8-12.8-14.7-26.1-20.4-39.9
				c-4.5-10.9-8.2-22-11-33.5C181.6,210.6,181.6,210.1,181.4,209.4z"/>
			<path class="st2" d="M800.7,239.7c-2.6,0-4.9,0-7.5,0c1.9-7,3.8-13.9,5.6-20.8c2.5,0,4.8,0,7.3,0c0,0.8,0,1.5,0,2.5
				c0.7-0.5,1.2-0.8,1.7-1.2c1.8-1.4,3.9-2,6.1-2c2.4,0,4.5,0.6,5.5,3.4c0.7-0.5,1.3-0.9,1.9-1.4c2.3-1.7,4.8-2.3,7.5-2
				c3.2,0.4,4.9,2.5,4.4,5.7c-0.4,2.3-1.1,4.6-1.7,6.8c-0.7,2.7-1.5,5.4-2.2,8.2c-0.1,0.2-0.2,0.4-0.4,0.7c-2.4,0-4.8,0-7.3,0
				c0.1-0.7,0.2-1.3,0.3-1.9c0.7-2.8,1.5-5.6,2.3-8.4c0.2-0.8,0.5-1.7,0.6-2.5c0.2-1,0.5-2.1-0.6-2.8c-1.1-0.7-2.2-0.6-3.4,0
				c-1.4,0.7-2.2,2-2.7,3.4c-0.7,2.1-1.2,4.2-1.8,6.3c-0.5,1.9-1,3.8-1.6,5.8c-2.4,0-4.8,0-7.4,0c0.1-0.6,0.1-1.2,0.3-1.8
				c0.9-3.2,1.8-6.5,2.7-9.7c0.1-0.4,0.3-0.7,0.3-1.1c0.1-1,0.5-2.1-0.5-2.8c-1-0.7-2.2-0.6-3.4-0.1c-1.5,0.7-2.4,2.1-2.8,3.6
				c-0.9,3.1-1.8,6.3-2.7,9.5C801.2,238,801,238.8,800.7,239.7z"/>
			<path class="st2" d="M777.6,240.7c-0.3,0-1.2-0.1-2-0.3c-5.4-1.4-7.4-5.4-6.3-10.8c1.5-6.9,9.9-12.4,16.9-11.3
				c6.1,0.9,9.2,6.2,7,12C791,236.4,784.7,240.7,777.6,240.7z M786,228.1c0.1-2.8-2.2-4.3-5-3.2c-2.2,0.9-3.5,2.6-4.1,4.8
				c-0.3,1.3-0.4,2.7,0.7,3.7c1.2,1.1,2.7,1.1,4.2,0.6C784.1,233.3,785.9,230.7,786,228.1z"/>
			<path class="st2" d="M769.9,219.6c-0.5,2.1-1.1,3.9-1.6,5.9c-0.3-0.1-0.6,0-0.7-0.1c-1.9-1.5-3.9-1.6-5.9-0.5
				c-2.3,1.2-3.6,3.3-3.8,5.9c-0.2,2.7,2.1,4.4,4.9,3.8c1-0.2,2-0.7,3.4-1.3c-0.5,2-0.9,3.8-1.5,5.5c-0.1,0.4-0.6,0.7-1,0.9
				c-3.1,1.2-6.2,1.6-9.4,0.3c-2.5-1-3.8-2.9-4.2-5.5c-0.9-7,4.5-14.4,11.5-15.8C764.5,218,767.2,217.8,769.9,219.6z"/>
			<path class="st2" d="M743.9,232.2c2.6,0,4.1,2.3,3.2,4.7c-0.8,2.2-3.2,3.9-5.4,3.8c-2.4-0.1-3.9-2-3.2-4.3
				C739.2,234,741.6,232.1,743.9,232.2z"/>
			<path class="st2" d="M616,220.8c-1-0.3-2.1-0.5-3.1-1c-1-0.5-1.4-1.4-1.4-2.5c0.2-4.1,5.1-9.6,9.2-10.3c1.5-0.2,2.9-0.1,4,0.8
				c0.6,0.5,1.2,1.3,1.3,2.1C626.5,214.7,620.9,220.6,616,220.8z"/>
			<path class="st2" d="M724.5,208.2c-4.5,0-9,0-13.5,0c1.7-4.2,6.1-6.7,10.6-6.2C725.6,202.5,726.7,204.7,724.5,208.2z"/>
		</g>
	</g>
</g>
<g id="Vote_Kael">
	<rect class="st5" width="1000" height="400"/>
	<g>
		<polygon class="st2" points="445.2,254.3 419.4,202.2 440.2,172.1 417.5,172.1 394.9,206.1 394.9,172.1 371.1,172.1 371.1,254.3 
			394.9,254.3 394.9,235.3 403.4,223.2 417.6,254.3 		"/>
		<polygon class="st2" points="628.9,234.1 596.5,234.1 596.5,172.1 571.3,172.1 571.3,254.3 628.9,254.3 		"/>
		<path class="st2" d="M482.6,254.3h25.7l-25.8-82.1h-26.7l-17.4,56.4l12.7,25.3l4.8-15.8h22L482.6,254.3z M460.2,220.1l6.6-23.8
			l6.6,23.8H460.2z"/>
		<polygon class="st2" points="503.8,221.9 514,254.3 565.7,254.3 565.7,234.6 528.6,234.6 528.6,221.2 558.5,221.2 558.5,203 
			528.6,203 528.6,191.1 565.7,191.1 565.7,172.1 503.8,172.1 		"/>
		<path class="st2" d="M377.6,276.5c-1.7,0-2.5-1-2.5-6.8c0-5.4,0.5-7.4,2.4-7.4c1.7,0,2.3,1.2,2.3,4h3.9c0-2.8-0.4-6.8-5.9-6.8
			c-5.8,0-6.5,4.1-6.5,9.9c0,5.8,0.7,9.9,6.5,9.9c5.1,0,6.1-3.6,6.1-7.7H380C380,275.8,379,276.5,377.6,276.5z"/>
		<rect x="396.3" y="259.7" class="st2" width="3.9" height="19.1"/>
		<polygon class="st2" points="412.1,262.8 416.3,262.8 416.3,278.7 420.1,278.7 420.1,262.8 424.3,262.8 424.3,259.7 412.1,259.7 
					"/>
		<polygon class="st2" points="444.4,259.7 441.7,267 441.7,267 439.2,259.7 434.8,259.7 439.8,271.2 439.8,278.7 443.6,278.7 
			443.6,271.2 448.6,259.7 		"/>
		<path class="st2" d="M482.7,279.1c5.1,0,6.1-3.6,6.1-7.7H485c0,4.1-1,4.8-2.4,4.8c-1.7,0-2.5-1-2.5-6.8c0-5.4,0.5-7.4,2.4-7.4
			c1.7,0,2.3,1.2,2.3,4h3.9c0-2.8-0.4-6.8-5.9-6.8c-5.8,0-6.5,4.1-6.5,9.9C476.2,275,477,279.1,482.7,279.1z"/>
		<path class="st2" d="M507.2,259.3c-5.8,0-6.5,4.1-6.5,9.9c0,5.8,0.7,9.9,6.5,9.9c5.8,0,6.5-4.1,6.5-9.9
			C513.7,263.4,513,259.3,507.2,259.3z M507.2,276.3c-2.3,0-2.6-2-2.6-7.1c0-5.1,0.4-7.1,2.6-7.1s2.6,2,2.6,7.1
			C509.9,274.3,509.5,276.3,507.2,276.3z"/>
		<path class="st2" d="M538,273v-13.3h-3.9V273c0,1.9-0.5,3.3-2.2,3.3c-1.8,0-2.2-1.4-2.2-3.3v-13.3h-3.9V273c0,5.1,3,6.2,6.1,6.2
			S538,277.8,538,273z"/>
		<polygon class="st2" points="559.7,272.7 559.7,272.7 555,259.7 550.6,259.7 550.6,278.7 554.1,278.7 554.1,265.4 554.2,265.4 
			558.9,278.7 563.3,278.7 563.3,259.7 559.7,259.7 		"/>
		<path class="st2" d="M582,276.3c-1.7,0-2.5-1-2.5-6.8c0-5.4,0.5-7.4,2.4-7.4c1.7,0,2.3,1.2,2.3,4h3.9c0-2.8-0.4-6.8-5.9-6.8
			c-5.8,0-6.5,4.1-6.5,9.9c0,5.8,0.7,9.9,6.5,9.9c5.1,0,6.1-3.6,6.1-7.7h-3.9C584.4,275.6,583.4,276.3,582,276.3z"/>
		<rect x="600.7" y="259.7" class="st2" width="3.9" height="19.1"/>
		<polygon class="st2" points="621.9,259.7 618.1,259.7 618.1,278.7 628.7,278.7 628.7,275.6 621.9,275.6 		"/>
		<path class="st2" d="M512.9,161.5c-0.9,0-1.3,0-1.3,0.1L512.9,161.5z"/>
		<path class="st2" d="M647.2,151.2l-0.6-3.5c-0.1,0-0.1-0.1-0.2-0.1c-0.2-0.1-0.4-0.4-0.4-0.5c0.1-0.2,0.3-0.4,0.6-0.5
			c0.1-0.1,0.2-0.1,0.3-0.1c0.5,0,1,0.1,1.5,0.2c0.7,0.1,1.3,0.3,2,0.1c0.4-0.1,0.8-0.6,0.8-1c0.1-0.5-0.3-0.8-0.6-0.9
			c-0.5-0.2-0.9-0.2-1.4-0.4c-0.2-0.1-0.5-0.3-0.6-0.5c-0.1-0.1,0.2-0.4,0.3-0.6c0,0,0.1-0.1,0.1-0.1c0.3-0.4,0.3-0.7-0.2-0.8
			c-0.4-0.1-0.8-0.2-1.1-0.3c-0.6-0.1-0.8-0.5-0.5-1.1c0.3-0.5,0.8-0.9,1.2-1.4c0.2-0.3,0.5-0.6,0.7-0.9c0.2-0.5,0-0.8-0.5-0.9
			c-0.1,0-0.3-0.1-0.4-0.1c-0.5-0.3-0.6-0.8-0.8-1.3c-0.2-0.6-0.4-1.3-0.7-1.9c-0.3-0.6-0.7-0.7-1.3-0.4c-0.2,0.1-0.4,0.2-0.6,0.3
			c-0.2,0-0.4,0-0.6-0.1c0-0.2,0-0.5,0.1-0.6c0.3-0.7,0.9-1,1.5-1.3c0.6-0.4,1.2-0.9,1.5-1.7c0.1-0.6,0-1-0.5-1.1
			c-0.4-0.1-0.8-0.1-1.3-0.1c-0.2,0-0.4,0-0.6,0c-0.4-0.1-0.8-0.3-0.9-0.7c-0.1-0.5,0.3-0.7,0.5-0.9c0.5-0.5,1-1,1.3-1.6
			c0.3-0.5,0.1-0.9-0.5-0.9c-0.3,0-0.5,0-0.8,0c-0.3,0-0.5-0.1-0.6-0.5c-0.1-0.4,0.2-0.5,0.4-0.7c0.1-0.1,0.2-0.1,0.3-0.1
			c0.4-0.2,0.7-0.4,0.8-0.8c0.1-0.4,0.3-0.8,0.5-1.1c0.1-0.3,0.4-0.6,0.2-1c-0.2-0.2-0.5,0-0.9,0.5c-0.2,0.3-0.4,0.6-0.7,0.9
			c-0.4,0.4-0.8,0.2-0.9-0.3c0-0.1-0.1-0.2-0.1-0.3c-0.2-0.8-0.5-1.5-0.3-2.4c0.1-0.3,0-0.7-0.1-1c-0.4-1-0.7-1.9,0-3
			c0.1-0.2,0.1-0.7-0.1-1c-0.3-0.6-0.8-1-1.4-1.3c-0.7-0.4-0.8-0.1-0.5-1.1c0.1-0.2,0.1-0.3,0.2-0.5c0.3-0.9,0.6-1.3-0.3-2
			c-0.1-0.1-0.2-0.2-0.2-0.3c-0.2-0.8-0.6-1.5-0.7-2.3c-0.2-1.1-0.2-2.3-0.3-3.5c-0.1-1.1-0.3-2.2-0.4-3.4c-0.1-0.4-0.4-0.6-0.7-0.4
			c-0.2,0.1-0.3,0.3-0.4,0.4c-0.4,0.7-0.4,1.5-0.4,2.4c0,1.3,0,2.5,0,3.8c0,1-0.4,1.8-0.9,2.6c-0.9,1.2-2,1.2-2.9,0
			c-0.6-0.9-1-1.9-1.2-3c-0.1-0.7-0.1-1.5-0.2-2.2c0-0.4,0.1-0.9-0.1-1.2c-0.6-0.9-0.6-2-0.6-3c0-0.4-0.1-0.8-0.2-1.2
			c0-0.1-0.2-0.3-0.3-0.3c-0.1,0-0.3,0.2-0.3,0.3c-0.2,0.5-0.4,1.1-0.5,1.6c-0.2,0.9-0.4,1.9-0.6,2.8c-0.2,0.8-0.4,1.6-0.1,2.5
			c0.3,1.1,0,1.5-1,1.6c-0.3,0-0.4,0.2-0.3,0.5c0.1,0.3,0.2,0.6,0.3,0.9c0.1,0.2,0.1,0.5,0,0.6c-0.1,0.1-0.4,0.2-0.6,0.2
			c-0.3,0-0.6,0-0.9,0c-0.4,0.1-0.6,0.6-0.3,1c0.1,0.2,0.3,0.3,0.4,0.5c0.3,0.4,0.6,0.8,0.9,1.2c0.2,0.3,0.2,0.7,0,1
			c-0.2-0.1-0.4-0.2-0.5-0.3c-0.4-0.3-0.8-0.5-1.3-0.4c-0.3,0-0.6,0.2-0.7,0.5c-0.1,0.4,0.1,0.6,0.4,0.8c0.3,0.2,0.6,0.4,0.8,0.7
			c0.3,0.3,0.2,0.8,0,1c-0.6,0.7-0.6,0.8-0.1,1.6c0.2,0.3,0.4,0.7,0.2,1.1c-0.2,0.4-0.6,0.4-1,0.3c-0.4,0-0.7,0.2-0.8,0.6
			c-0.2,0.4-0.3,0.9-0.4,1.3c-0.2,0.7-0.8,0.9-1.3,0.4c-0.4-0.4-0.8-0.8-1.1-1.2c-0.4-0.4-0.8-0.8-1.4-0.6c-0.4,0.1-0.6-0.1-0.8-0.4
			c-0.2-0.4-0.4-0.9-0.5-1.4c-0.1-0.8-0.1-1.7-0.2-2.6c-0.1-0.5-0.2-0.9-0.4-1.4c-0.1-0.3-0.3-0.3-0.5-0.1c-0.4,0.4-0.6,0.9-0.7,1.5
			c-0.2,1.3-0.4,2.6-0.7,3.9c-0.1,0.3-0.2,0.7-0.3,1c-0.2,0.6-0.2,1.1,0.2,1.6c0.1,0.1,0.1,0.5,0.1,0.7c-0.3,0.7-0.6,1.5-1,2.2
			c-0.6,1.2-1.1,2.5-1.4,3.9c-0.1,0.5-0.1,1,0,1.5c0.4,1.3-0.2,3.2-1.3,3.9c-0.2,0.1-0.5,0.2-0.8,0.4c0.8,0.6,1.1,1.5,0.9,2.5
			c-0.2,0.9-0.7,1.3-1.6,1.1c-0.4-0.1-0.7,0-1.1,0.2c-0.4,0.2-0.7,0.5-1.1,0.7c-0.4,0.2-0.7,0.1-0.8-0.2c-0.1-0.5,0.2-0.5,0.5-0.7
			c0.3-0.2,0.6-0.3,0.8-0.5c0.3-0.3,0.3-0.7,0.2-1.1c-0.1-0.3-0.3-0.4-0.6-0.5c-0.4-0.1-0.7-0.1-1.1-0.2c-0.5-0.1-0.7-0.4-0.5-0.9
			c0.2-0.5,0-0.9-0.2-1.4c-0.2-0.4-0.3-0.8-0.3-1.2c-0.1-0.3,0-0.6,0-0.9c0-1-0.3-1.4-1.1-1.6c-0.5-0.1-0.8-0.5-0.9-1
			c-0.1-0.7-0.3-1.3-0.7-1.9c-0.3-0.4-0.5-0.8-0.6-1.2c-0.2-0.7-0.4-1.4-0.5-2.1c-0.3-1.4-0.6-2.8-0.9-4.3c-0.1-0.3-0.1-0.6-0.2-0.9
			c-0.1-0.2-0.3-0.3-0.4-0.3c-0.1,0-0.2,0.2-0.2,0.4c-0.2,0.9-0.4,1.9-0.6,2.8c-0.1,0.9-0.1,1.8,0.1,2.7c0.1,0.3,0,0.7-0.1,1
			c-0.1,0.4-0.4,0.8-0.6,1.2c-0.1,0.1-0.1,0.2-0.2,0.4c-0.3-0.6-0.5-1.3-0.8-1.9c-1.1-2.8-2.4-5.5-3.8-8.1c-0.8-1.4-1.5-2.9-2.4-4.3
			c-1.4-2.4-2.8-4.7-4.4-6.9c-0.9-1.3-1.8-2.6-2.8-3.8c-1.4-1.9-3-3.8-4.5-5.6c-1.5-1.8-3.2-3.5-4.8-5.2c-1.5-1.6-3.1-3.1-4.8-4.6
			c-1-0.9-2-1.8-3.1-2.7c-1-0.8-2-1.6-3.1-2.4c-1.4-1.1-2.8-2.2-4.3-3.2c-2.4-1.7-4.9-3.3-7.4-4.8c-1.1-0.6-2.2-1.3-3.3-1.9
			c-16.7-9.1-35.6-14-55-14c-19.8,0-38.6,5.1-54.9,14c-1.1,0.6-2.2,1.2-3.3,1.9c-2.5,1.5-5,3.1-7.4,4.8c-1.5,1-2.9,2.1-4.3,3.2
			c-2.1,1.6-4.2,3.4-6.1,5.1c-1.7,1.5-3.3,3-4.8,4.6c-1.7,1.7-3.3,3.4-4.8,5.2c-1.6,1.8-3.1,3.7-4.6,5.6c-1,1.3-1.9,2.5-2.8,3.8
			c-1.6,2.3-3,4.6-4.4,6.9c-0.8,1.4-1.6,2.8-2.4,4.3c-0.3,0.5-0.5,1.1-0.8,1.6c0,0,0,0,0,0c-0.2,0-0.4,0.2-0.4,0.3
			c-0.1,0.3-0.1,0.6-0.2,0.9c0,0.1,0,0.2-0.1,0.4c-0.8,1.7-1.6,3.3-2.3,5c-0.7,1.6-1.3,3.3-1.9,4.9c-0.1,0.2-0.1,0.4-0.2,0.6
			c-0.2,0.2-0.3,0.5-0.3,0.9c-0.5,1.6-1,3.2-1.5,4.8c-0.2,0-0.4,0.1-0.6,0.1c-0.3,0-0.5,0.1-0.6,0.5c-0.1,0.4-0.1,0.8,0.2,1.1
			c0.1,0.1,0.3,0.2,0.5,0.3c-0.1,0.3-0.2,0.6-0.3,0.9c-0.3-0.2-0.5-0.4-0.8-0.5c-0.3-0.2-0.7-0.3-1.1-0.2c-0.8,0.2-1.4-0.2-1.6-1.1
			c-0.2-1,0.1-1.8,0.9-2.5c-0.3-0.1-0.5-0.3-0.8-0.4c-1.1-0.7-1.7-2.5-1.3-3.9c0.1-0.4,0.1-1,0-1.5c-0.2-1.4-0.8-2.6-1.4-3.8
			c-0.3-0.7-0.7-1.5-1-2.2c-0.1-0.2-0.1-0.5,0.1-0.7c0.4-0.5,0.4-1,0.2-1.6c-0.1-0.3-0.3-0.7-0.3-1c-0.2-1.3-0.5-2.6-0.7-3.9
			c-0.1-0.6-0.2-1.1-0.7-1.5c-0.2-0.2-0.4-0.2-0.5,0.1c-0.1,0.4-0.3,0.9-0.4,1.4c-0.1,0.9-0.1,1.7-0.2,2.6c-0.1,0.5-0.3,1-0.5,1.4
			c-0.2,0.3-0.4,0.5-0.8,0.4c-0.6-0.1-1,0.2-1.4,0.6c-0.4,0.4-0.7,0.8-1.1,1.2c-0.6,0.5-1.1,0.3-1.3-0.5c-0.1-0.4-0.3-0.9-0.5-1.3
			c-0.1-0.4-0.4-0.6-0.8-0.6c-0.4,0-0.8,0.1-1-0.3c-0.2-0.4,0-0.8,0.2-1.1c0.5-0.8,0.4-0.9-0.1-1.6c-0.3-0.3-0.3-0.8,0-1
			c0.2-0.3,0.5-0.5,0.8-0.7c0.2-0.2,0.5-0.4,0.4-0.8c-0.1-0.4-0.4-0.5-0.7-0.5c-0.5,0-0.9,0.1-1.3,0.4c-0.2,0.1-0.3,0.2-0.5,0.3
			c-0.2-0.4-0.2-0.7,0-1c0.3-0.4,0.6-0.8,0.9-1.2c0.1-0.2,0.3-0.3,0.4-0.5c0.3-0.4,0.1-0.9-0.3-1c-0.3-0.1-0.6,0-0.9,0
			c-0.2,0-0.4,0-0.6-0.2c-0.1-0.1,0-0.4,0-0.6c0.1-0.3,0.2-0.6,0.3-0.9c0.1-0.3,0-0.5-0.3-0.5c-1-0.1-1.3-0.5-1-1.6
			c0.3-0.9,0.1-1.7-0.1-2.5c-0.2-0.9-0.4-1.9-0.6-2.8c-0.1-0.6-0.3-1.1-0.5-1.6c0-0.1-0.2-0.3-0.3-0.3c-0.1,0-0.3,0.2-0.3,0.3
			c-0.1,0.4-0.2,0.8-0.2,1.2c0,1.1-0.1,2.1-0.6,3c-0.2,0.3-0.1,0.8-0.1,1.2c-0.1,0.7,0,1.5-0.2,2.2c-0.2,1.1-0.6,2.1-1.2,3
			c-0.8,1.2-2,1.2-2.9,0c-0.5-0.8-0.9-1.6-0.9-2.6c-0.1-1.3,0-2.5,0-3.8c0-0.8-0.1-1.6-0.4-2.4c-0.1-0.2-0.2-0.3-0.4-0.4
			c-0.3-0.2-0.7,0-0.7,0.4c-0.2,1.1-0.3,2.2-0.4,3.4c-0.1,1.2-0.1,2.3-0.3,3.5c-0.1,0.8-0.4,1.5-0.7,2.3c0,0.1-0.1,0.2-0.2,0.3
			c-0.9,0.8-0.6,1.1-0.3,2c0,0.2,0.1,0.3,0.2,0.5c0.4,0.9,0.2,0.7-0.5,1.1c-0.6,0.3-1.1,0.6-1.4,1.3c-0.1,0.3-0.2,0.8-0.1,1
			c0.7,1,0.4,2,0,3c-0.1,0.3-0.2,0.7-0.1,1c0.2,0.9-0.1,1.6-0.3,2.4c0,0.1-0.1,0.2-0.1,0.3c-0.1,0.5-0.5,0.7-0.9,0.3
			c-0.3-0.3-0.5-0.6-0.7-0.9c-0.3-0.5-0.7-0.7-0.9-0.5c-0.3,0.4,0,0.7,0.2,1c0.2,0.4,0.3,0.7,0.5,1.1c0.2,0.4,0.5,0.7,0.8,0.8
			c0.1,0,0.2,0.1,0.3,0.1c0.3,0.1,0.5,0.3,0.4,0.7c-0.1,0.4-0.4,0.4-0.6,0.5c-0.3,0-0.5,0-0.8,0c-0.6,0-0.8,0.4-0.5,0.9
			c0.4,0.6,0.9,1.1,1.3,1.6c0.3,0.3,0.7,0.4,0.5,0.9c-0.1,0.5-0.5,0.7-0.9,0.7c-0.2,0-0.4,0-0.6,0c-0.4,0-0.9,0-1.3,0.1
			c-0.5,0.1-0.6,0.5-0.5,1.1c0.2,0.9,0.8,1.3,1.5,1.7c0.6,0.4,1.1,0.7,1.5,1.3c0.1,0.2,0.1,0.4,0.1,0.6c-0.2,0-0.4,0.1-0.6,0.1
			c-0.2,0-0.4-0.2-0.6-0.3c-0.6-0.3-1-0.2-1.3,0.4c-0.3,0.6-0.5,1.3-0.7,1.9c-0.2,0.5-0.3,1.1-0.8,1.3c-0.1,0.1-0.2,0.1-0.4,0.1
			c-0.4,0.1-0.7,0.5-0.5,0.9c0.2,0.3,0.4,0.7,0.7,0.9c0.4,0.5,0.9,0.8,1.3,1.4c0.4,0.6,0.2,1-0.5,1.1c-0.4,0.1-0.8,0.1-1.1,0.3
			c-0.5,0.1-0.5,0.4-0.2,0.8c0,0,0.1,0.1,0.1,0.1c0.1,0.2,0.3,0.5,0.3,0.6c-0.1,0.2-0.4,0.4-0.6,0.5c-0.5,0.2-0.9,0.2-1.4,0.4
			c-0.4,0.1-0.7,0.4-0.6,0.9c0,0.4,0.4,0.9,0.8,1c0.7,0.2,1.3,0,2-0.1c0.5-0.1,1-0.1,1.5-0.2c0.1,0,0.2,0,0.3,0.1
			c0.2,0.1,0.4,0.3,0.6,0.5c0,0.1-0.2,0.4-0.4,0.5c-0.1,0-0.1,0.1-0.2,0.1l-0.9,5.2l-11.8,4.1v136.8L500,344l160.4-50.2V157.9
			L647.2,151.2z M597.1,129.1c0.5,1.4,1,2.9,1.5,4.4c-0.2,0.3-0.4,0.5-0.7,0.7c-0.5,0.4-0.9,0.3-1.1-0.4c-0.2-0.8-0.7-1.4-1.1-2.1
			c-0.6-0.8-1.2-1.5-1.2-2.6c0-0.1,0-0.1-0.1-0.2L597.1,129.1z M594.8,123.6c0.5,1,0.9,2.1,1.3,3.1h-2.3c0-0.5,0-1.1,0-1.6
			c0-0.6-0.2-1.2-0.5-1.7c-0.4-0.5-1.1-0.4-1.3,0.3c-0.1,0.6-0.2,1.2-0.2,1.8c0,0.4,0,0.8,0,1.2h-7.8c0.2-0.1,0.4-0.2,0.5-0.4
			c0.5-0.5,0.3-1.1-0.4-1.2c-0.3-0.1-0.7,0-1.1,0c-0.5,0-1,0.1-1.5,0c-0.2,0-0.4-0.3-0.6-0.4c0.1-0.2,0.2-0.5,0.4-0.6
			c0.6-0.4,1.2-0.8,1.7-1.2c0.7-0.5,0.9-0.9,0.7-1.6l10.1,0.5C594.3,122.4,594.6,123,594.8,123.6z M591.4,128.9
			c-0.1,0.4-0.3,0.8-0.4,1.2c-0.3,0.8-0.5,1.6-0.7,2.4l-2.2-1.3h-0.8c-1.3-0.8-2.2-1.2-2.2-1.2c-0.5-0.5-1-1-1.6-1.4L591.4,128.9z
			 M590.4,114.8c0.1,0.2,0.3,0.4,0.4,0.6c0.7,1.3,1.5,2.7,2.1,4.1h-9.4c0-0.1,0-0.2,0-0.3c-0.1-0.5-0.2-0.6-0.6-0.5
			c-0.2,0.1-0.4,0.2-0.6,0.3c-0.8,0.5-1.4,0.2-1.4-0.8c0-1.1-0.2-2.1-0.3-3.1c0-0.3,0-0.6-0.1-0.8L590.4,114.8z M588.2,111.2
			c0.3,0.5,0.6,1,0.9,1.4h-10.7c-0.3-0.3-0.4-0.8-0.2-1.3c0.2-0.5,0.1-0.9-0.2-1.3c-0.3-0.5-0.7-0.9-1.1-1.3
			c-0.1-0.1-0.2-0.3-0.3-0.4l10.1,0.5C587.2,109.5,587.7,110.3,588.2,111.2z M583.5,104.2c0.6,0.7,1.1,1.5,1.6,2.3l-8.7,0
			c0.1-1.1,0-2.3-0.2-3.4c-0.1-0.6-0.4-1.1-0.9-1.4c0,0-0.1,0-0.1-0.1l6.6,0.3C582.3,102.7,582.9,103.5,583.5,104.2z M410,104.2
			c0.6-0.8,1.2-1.6,1.8-2.4l36.2-1.7h-34.9c1.1-1.3,2.2-2.5,3.3-3.8l28.2-1.3h-27c0.1-0.1,0.1-0.2,0.2-0.2c1.5-1.6,3.1-3.2,4.7-4.7
			l15.2-0.7h-14.4c1.7-1.5,3.4-3,5.2-4.4c2.2-1.8,4.6-3.5,7-5.1c1.6-1.1,3.3-2.2,5-3.2c2.9-1.7,5.9-3.3,8.9-4.8
			c1.4-0.7,2.7-1.3,4.1-1.9c13.3-5.7,28-8.9,43.2-8.9c15.2,0,29.8,3.2,43,8.9c1.4,0.6,2.8,1.2,4.1,1.9c3,1.5,6,3.1,8.9,4.8
			c1.7,1,3.4,2.1,5,3.2c2.4,1.6,4.7,3.3,7,5.1c1.8,1.5,3.6,3,5.4,4.6c0,0,0,0,0,0H556l15,0.7c1.6,1.5,3.1,3,4.6,4.5
			c0.1,0.1,0.3,0.3,0.4,0.4h-26.8l28.1,1.3c1.1,1.2,2.2,2.5,3.3,3.8h-34.7l29.3,1.4c-0.1,0-0.1,0.1-0.1,0.2
			c-0.1,0.8-0.3,1.5-0.4,2.3c-0.1,0.8-0.2,1.6-0.3,2.3l-28.9,0.1l28.6,1.5c-0.2,0.8-0.5,1.5-1.3,1.9c-0.1,0.1-0.3,0.4-0.2,0.5
			c0.1,0.4,0.2,0.8,0.4,1.2c-0.1,0.1-0.3,0.2-0.4,0.3c-0.2,0.2-0.3,0.4-0.4,0.6h-19.2c0,0-0.1,0-0.1,0h-3.1l-4.3-2.2h-8.4l-7.6-6.3
			l-11.8-1.2l-13.1-5.2l-6,2.1l-3.1-0.6l-21.1,2.9l-26.3,14.9c-0.1-0.2-0.1-0.5-0.2-0.7c-0.1-0.1-0.2-0.3-0.3-0.3
			c-0.3-0.2-0.6,0-0.6,0.3c0,0.3-0.1,0.7-0.1,1c-0.2-1.1-0.3-2.2-0.2-3.3c0-0.3,0.1-0.5,0.1-0.8c0-0.4-0.2-0.6-0.5-0.7l1.8-0.1
			c0.1,0,0.2-0.1,0.4-0.1h-21.4c-0.1-0.2-0.2-0.3-0.3-0.4c-0.1-0.1-0.3-0.2-0.4-0.3c0.1-0.4,0.3-0.8,0.4-1.2c0-0.1-0.1-0.4-0.2-0.5
			c-0.8-0.4-1.2-1.3-1.3-2.2c0,0,0-0.1,0-0.1l23.5-1.2l-23.7-0.1c-0.1-0.7-0.2-1.4-0.3-2.2c-0.1-0.8-0.3-1.5-0.4-2.3
			c-0.1-0.3-0.2-0.3-0.4-0.2c-0.5,0.3-0.8,0.8-0.9,1.4c-0.2,1.1-0.2,2.1-0.2,3.2l-14,0C409,105.6,409.5,104.9,410,104.2z
			 M571.8,115.6c0.1,0.4,0,0.6-0.3,0.9c-0.2,0.3-0.6,0.6-0.6,0.9c0,0.5-0.2,0.8-0.5,1.2c-0.2,0.3-0.4,0.6-0.4,0.9h-4.7
			c-0.1-0.2-0.2-0.3-0.3-0.4c-0.3-0.2-0.5-0.5-0.8-0.8c-0.4-0.3-0.5-0.7-0.3-1.2c0.1-0.3,0-0.5-0.2-0.6c-0.2-0.2-0.5-0.4-0.7-0.4
			c-0.7-0.3-1.1,0-1.2,0.8c0,0.2-0.2,0.4-0.4,0.6c-0.2,0.2-0.4,0.3-0.6,0.4c-0.1,0.1-0.2,0.1-0.2,0.2l-6.5-3.3c0,0,0-0.1,0-0.1
			c0.1-0.7,0-1.3-0.4-1.7l18.5,0.9c0,0,0,0.1,0,0.1C571.8,114.5,571.6,115,571.8,115.6z M570.7,123.2c0.1,0.1,0.1,0.2,0.1,0.2
			l-0.4-0.3l-5.1-2.5c0,0,0-0.1,0-0.1l4.8,0.2c0,0,0,0,0,0C570.1,121.6,570.2,122.5,570.7,123.2z M552.2,113.9l-2.1-1l2.1,0.1
			c0,0.1-0.1,0.2-0.1,0.3C552.2,113.5,552.2,113.7,552.2,113.9z M444.7,114.7c0.1,0.8-0.2,1.5-0.5,2.3c-0.3,0.7-0.5,1.4-0.8,2
			c0,0.1,0,0.3,0,0.4c0,0.1,0,0.1,0,0.2l-5.6,3.2c-0.1-0.3,0-0.5,0.1-0.8c0.4-0.9,0.5-1.8,0.3-2.8c0-0.1,0-0.3,0-0.4
			c0.2-0.4,0.1-0.7-0.3-0.9c-0.2-0.1-0.4-0.2-0.6-0.4c-0.2-0.2-0.3-0.4-0.4-0.6c-0.2-0.8-0.5-1.1-1.2-0.8c-0.3,0.1-0.5,0.3-0.7,0.4
			c-0.2,0.1-0.3,0.3-0.2,0.6c0.2,0.5,0.1,0.9-0.3,1.2c-0.3,0.2-0.5,0.5-0.8,0.8c-0.1,0.1-0.2,0.2-0.2,0.3H429c0-0.3-0.2-0.5-0.4-0.7
			c-0.3-0.3-0.5-0.6-0.5-1.2c0-0.3-0.3-0.7-0.6-0.9c-0.3-0.3-0.4-0.5-0.3-0.9c0.2-0.6-0.1-1.1-0.4-1.6c-0.1-0.2-0.2-0.3-0.1-0.5
			l19.1-0.9c-0.1,0-0.1,0-0.2,0C444.9,113,444.6,113.8,444.7,114.7z M431.4,123.2c0.8,1.4-0.3,2.9-1.3,3c-0.3,0-0.8-0.1-1.1-0.4
			c-0.3-0.2-0.3-0.5,0.1-0.7c0.2-0.1,0.4-0.1,0.5-0.3c0.1-0.1,0.3-0.3,0.3-0.4c-0.1-0.2-0.2-0.3-0.4-0.4c-0.3-0.1-0.7-0.2-1-0.2
			c-0.4-0.1-0.5-0.3-0.2-0.6c0.6-0.7,0.6-1.6,0.5-2.5c0-0.1,0-0.2,0-0.3l4.5-0.2c0,0,0,0.1,0,0.1c0.1,0.4-0.1,0.8-0.4,1
			c-0.4,0.3-0.8,0.5-1.1,0.7C431.2,122.4,431.1,122.7,431.4,123.2z M405.3,111.2c0.5-0.9,1.1-1.7,1.7-2.6l15.6-0.8
			c-0.1,0.3-0.2,0.6-0.4,0.9c-0.4,0.4-0.7,0.9-1.1,1.3c-0.3,0.4-0.4,0.8-0.2,1.3c0.1,0.4,0.1,0.8-0.1,1.1h-16.2
			C404.8,112,405,111.6,405.3,111.2z M402.8,115.4c0.2-0.3,0.3-0.5,0.5-0.8l15.4-0.7c0,0.4,0,0.8-0.1,1.3c-0.1,1-0.3,2-0.3,3.1
			c0,1-0.7,1.3-1.4,0.8c-0.2-0.1-0.4-0.3-0.6-0.3c-0.4-0.1-0.6,0-0.6,0.5c0,0,0,0.1,0,0.1h-14.7C401.4,118,402,116.7,402.8,115.4z
			 M398.7,123.6c0.3-0.6,0.6-1.3,0.9-1.9l15.6-0.7c-0.3,0.9-0.1,1.3,0.7,1.9c0.6,0.4,1.2,0.8,1.7,1.2c0.2,0.1,0.3,0.4,0.4,0.6
			c-0.2,0.2-0.4,0.4-0.6,0.4c-0.5,0-1,0-1.5,0c-0.4,0-0.7,0-1.1,0c-0.6,0.1-0.8,0.7-0.4,1.2c0.1,0.1,0.2,0.1,0.3,0.2h-7.6
			c0-0.3,0-0.7,0-1c0-0.6,0-1.2-0.2-1.8c-0.2-0.7-0.9-0.8-1.3-0.3c-0.4,0.5-0.5,1-0.5,1.7c0,0.5,0,1,0,1.4h-7
			c-0.1-0.3-0.2-0.5-0.3-0.8C398.1,125,398.4,124.3,398.7,123.6z M416.2,128c-0.9,0.4-1.6,1.2-2.4,1.9c0,0-2.8,1.3-5.2,3.3
			c-0.1-1.1-0.4-2.1-0.7-3.1c-0.2-0.5-0.4-1.1-0.5-1.6L416.2,128z M404.8,128.6c-0.1,0.1-0.1,0.2-0.2,0.3c-0.1,0.1-0.1,0.2-0.1,0.3
			c0,1.1-0.6,1.8-1.2,2.6c-0.5,0.6-0.9,1.3-1.2,2.1c-0.2,0.7-0.6,0.8-1.1,0.4c-0.7-0.7-1.4-1.5-1.6-2.6c-0.1-0.4-0.3-0.8-0.5-1.2
			c-0.4-0.5-0.4-0.8,0.1-1.2c0,0,0.1,0,0.1-0.1c0.1-0.1,0.2-0.3,0.4-0.4L404.8,128.6z M655.3,288.7c-18.4,0.1-88.6,0.3-97.4,0
			l86.8,4.7l-18,5.6H577l43.7,1.9l-20,6.2h-16.9l12.7,1.3L500,338.6l-95.2-29.8l14.8-1.2h-18.7l-19.4-6.1l42.8-2.6h-51.2l-17.6-5.5
			l89.9-4.9H344.7v-127h144.1l-129.1-6.1l9.4-3.3l7.3-3.1l9.8,0.2l4.8-1.9l36.6-12.9l48.3-27.3l19.3-2.7l3.6,0.7l5.5-1.9l12,4.7
			l11,1.1l7.8,6.5h9l23.6,11.9l10.6,8.8h8.4l9.6,5.7l28.2,10.1h12.9l6.4,3.3l-78.2,3.7l-21.2-0.8l-12.7-2.7L520,150l-12.6-9.1
			l20.6,19.9l-15.1,0.7c13-0.3,118.2,0,142.4,0.1V288.7z"/>
		<path class="st2" d="M557.9,288.7l-0.9-0.1C556.9,288.7,557.3,288.7,557.9,288.7z"/>
		<polygon class="st2" points="411.6,150.6 391.6,153.9 416.4,154.1 438.4,144.1 454.4,135.8 436,139.6 		"/>
		<polygon class="st2" points="528.3,131.2 542.4,142.7 530.2,128.7 507.5,119.7 496.8,122.3 510.6,126.5 		"/>
		<polygon class="st2" points="599.5,152.4 572.6,145.1 551.8,133 570.7,148.2 		"/>
		<polygon class="st2" points="460.7,139.7 473.1,127 486,114.2 468,122.3 		"/>
		<path class="st2" d="M447.9,295.5h-5.3v12.1h1.6v-5h3.7c1.2,0,2.1-0.3,2.8-0.9c0.6-0.6,0.9-1.5,0.9-2.7c0-1.1-0.3-2-0.9-2.6
			S449.1,295.5,447.9,295.5z M449.3,300.8c-0.4,0.4-1.1,0.6-2,0.6h-3.2v-4.5h3.2c0.9,0,1.6,0.2,2,0.6c0.4,0.4,0.6,0.9,0.6,1.7
			C450,299.8,449.8,300.4,449.3,300.8z"/>
		<path class="st2" d="M468.5,297.2c-0.5-0.6-1.1-1.1-1.8-1.4c-0.7-0.4-1.6-0.5-2.5-0.5c-1,0-1.8,0.2-2.5,0.5
			c-0.7,0.4-1.3,0.8-1.8,1.4c-0.5,0.6-0.9,1.3-1.1,2c-0.2,0.8-0.4,1.6-0.4,2.4c0,0.8,0.1,1.6,0.4,2.4c0.2,0.8,0.6,1.4,1.1,2
			c0.5,0.6,1.1,1.1,1.8,1.4c0.7,0.3,1.6,0.5,2.5,0.5c1,0,1.8-0.2,2.5-0.5c0.7-0.3,1.3-0.8,1.8-1.4c0.5-0.6,0.9-1.3,1.1-2
			c0.2-0.8,0.4-1.6,0.4-2.4c0-0.8-0.1-1.6-0.4-2.4C469.3,298.4,469,297.8,468.5,297.2z M468.1,303.4c-0.2,0.6-0.4,1.1-0.7,1.6
			c-0.3,0.5-0.8,0.9-1.3,1.1c-0.5,0.3-1.2,0.4-1.9,0.4c-0.7,0-1.4-0.1-1.9-0.4c-0.5-0.3-1-0.7-1.3-1.1s-0.6-1-0.7-1.6
			c-0.2-0.6-0.2-1.2-0.2-1.8c0-0.6,0.1-1.2,0.2-1.8c0.2-0.6,0.4-1.1,0.7-1.6s0.8-0.9,1.3-1.1c0.5-0.3,1.2-0.4,1.9-0.4
			c0.7,0,1.4,0.1,1.9,0.4c0.5,0.3,1,0.7,1.3,1.1c0.3,0.5,0.6,1,0.7,1.6c0.2,0.6,0.2,1.2,0.2,1.8
			C468.3,302.2,468.3,302.8,468.1,303.4z"/>
		<path class="st2" d="M486.4,304.3c0-0.6-0.1-1.1-0.3-1.5c-0.2-0.4-0.5-0.7-0.9-1c-0.4-0.3-0.8-0.5-1.2-0.6s-0.9-0.3-1.4-0.4
			c-0.5-0.1-1-0.2-1.4-0.3c-0.5-0.1-0.9-0.2-1.2-0.4c-0.4-0.1-0.7-0.3-0.9-0.6c-0.2-0.2-0.3-0.5-0.3-0.9c0-0.4,0.1-0.7,0.2-1
			c0.2-0.3,0.4-0.5,0.6-0.6c0.3-0.2,0.5-0.3,0.9-0.3c0.3-0.1,0.7-0.1,1-0.1c0.8,0,1.5,0.2,2.1,0.6c0.5,0.4,0.9,1,0.9,1.9h1.5
			c0-0.7-0.2-1.2-0.4-1.7c-0.2-0.5-0.5-0.9-1-1.2c-0.4-0.3-0.9-0.5-1.4-0.7c-0.5-0.1-1.1-0.2-1.7-0.2c-0.6,0-1.1,0.1-1.6,0.2
			s-1,0.4-1.4,0.6c-0.4,0.3-0.7,0.7-1,1.1c-0.2,0.4-0.4,1-0.4,1.6c0,0.6,0.1,1,0.3,1.4c0.2,0.4,0.5,0.7,0.9,0.9
			c0.4,0.2,0.8,0.4,1.2,0.6c0.5,0.1,0.9,0.3,1.4,0.4c0.5,0.1,1,0.2,1.4,0.3c0.5,0.1,0.9,0.2,1.2,0.4c0.4,0.2,0.7,0.4,0.9,0.6
			c0.2,0.3,0.3,0.6,0.3,1c0,0.4-0.1,0.8-0.3,1.1c-0.2,0.3-0.4,0.5-0.7,0.7c-0.3,0.2-0.6,0.3-1,0.3c-0.4,0.1-0.7,0.1-1.1,0.1
			c-0.5,0-0.9-0.1-1.3-0.2c-0.4-0.1-0.8-0.3-1.1-0.5c-0.3-0.2-0.6-0.5-0.8-0.9c-0.2-0.4-0.3-0.8-0.3-1.3h-1.5c0,0.7,0.1,1.4,0.4,1.9
			c0.3,0.5,0.6,1,1.1,1.3c0.5,0.3,1,0.6,1.6,0.8c0.6,0.2,1.2,0.3,1.9,0.3c0.6,0,1.1-0.1,1.7-0.2c0.6-0.1,1.1-0.3,1.5-0.6
			c0.5-0.3,0.8-0.7,1.1-1.1S486.4,305,486.4,304.3z"/>
		<rect x="493.9" y="295.5" class="st2" width="1.6" height="12.1"/>
		<polygon class="st2" points="502.3,296.9 506.4,296.9 506.4,307.7 508,307.7 508,296.9 512,296.9 512,295.5 502.3,295.5 		"/>
		<rect x="518.9" y="295.5" class="st2" width="1.6" height="12.1"/>
		<path class="st2" d="M538.1,297.2c-0.5-0.6-1.1-1.1-1.8-1.4c-0.7-0.4-1.6-0.5-2.5-0.5s-1.8,0.2-2.5,0.5c-0.7,0.4-1.3,0.8-1.8,1.4
			c-0.5,0.6-0.9,1.3-1.1,2c-0.2,0.8-0.4,1.6-0.4,2.4c0,0.8,0.1,1.6,0.4,2.4c0.2,0.8,0.6,1.4,1.1,2c0.5,0.6,1.1,1.1,1.8,1.4
			c0.7,0.3,1.6,0.5,2.5,0.5s1.8-0.2,2.5-0.5c0.7-0.3,1.3-0.8,1.8-1.4c0.5-0.6,0.9-1.3,1.1-2s0.4-1.6,0.4-2.4c0-0.8-0.1-1.6-0.4-2.4
			C539,298.4,538.6,297.8,538.1,297.2z M537.8,303.4c-0.2,0.6-0.4,1.1-0.7,1.6c-0.3,0.5-0.8,0.9-1.3,1.1c-0.5,0.3-1.2,0.4-1.9,0.4
			c-0.7,0-1.4-0.1-1.9-0.4c-0.5-0.3-1-0.7-1.3-1.1s-0.6-1-0.7-1.6c-0.2-0.6-0.2-1.2-0.2-1.8c0-0.6,0.1-1.2,0.2-1.8
			c0.2-0.6,0.4-1.1,0.7-1.6s0.8-0.9,1.3-1.1c0.5-0.3,1.2-0.4,1.9-0.4c0.7,0,1.4,0.1,1.9,0.4s1,0.7,1.3,1.1c0.3,0.5,0.6,1,0.7,1.6
			c0.2,0.6,0.2,1.2,0.2,1.8C538,302.2,537.9,302.8,537.8,303.4z"/>
		<polygon class="st2" points="555.1,305.4 555.1,305.4 548.7,295.5 547,295.5 547,307.7 548.5,307.7 548.5,297.9 548.6,297.9 
			554.9,307.7 556.7,307.7 556.7,295.5 555.1,295.5 		"/>
		<path class="st2" d="M506.6,323.3L506.6,323.3c0.8-0.3,1.4-0.8,1.8-1.5c0.4-0.6,0.6-1.4,0.6-2.3c0-0.8-0.2-1.4-0.5-2
			c-0.3-0.6-0.7-1.1-1.2-1.4c-0.5-0.4-1.1-0.7-1.7-0.9c-0.6-0.2-1.3-0.3-2-0.3c-0.9,0-1.6,0.1-2.3,0.4c-0.7,0.3-1.3,0.7-1.8,1.2
			c-0.5,0.5-0.9,1.1-1.1,1.9c-0.3,0.7-0.4,1.5-0.5,2.3h2.8c0-0.4,0-0.9,0.1-1.3c0.1-0.4,0.3-0.8,0.5-1.1c0.2-0.3,0.5-0.6,0.9-0.8
			c0.4-0.2,0.8-0.3,1.3-0.3c0.8,0,1.4,0.2,1.9,0.7c0.5,0.4,0.7,1,0.7,1.8c0,0.5-0.1,1-0.3,1.3c-0.2,0.4-0.5,0.6-0.9,0.8
			c-0.4,0.2-0.8,0.3-1.2,0.4c-0.5,0.1-0.9,0.1-1.4,0.1v2.1c0.6,0,1.1,0,1.6,0s1,0.2,1.4,0.4c0.4,0.2,0.8,0.5,1,0.9
			c0.3,0.4,0.4,0.9,0.4,1.6c0,1-0.3,1.7-0.9,2.3c-0.6,0.5-1.4,0.8-2.3,0.8c-1.1,0-1.9-0.3-2.5-1c-0.5-0.7-0.8-1.6-0.8-2.6h-2.8
			c0,0.9,0.2,1.7,0.4,2.5c0.3,0.7,0.6,1.4,1.1,1.9c0.5,0.5,1.1,0.9,1.9,1.2s1.6,0.4,2.6,0.4c0.8,0,1.6-0.1,2.3-0.4
			c0.7-0.2,1.4-0.6,1.9-1c0.6-0.4,1-1,1.3-1.6c0.3-0.6,0.5-1.4,0.5-2.2c0-1.1-0.3-2.1-0.8-2.8C508.3,324,507.6,323.5,506.6,323.3z"
			/>
		<path class="st2" d="M492.8,318h-1.1l-0.5,3.4h-2l0.5-3.4h-1.1l-0.5,3.4h-1.8v1.1h1.7l-0.3,2.5h-1.8v1.1h1.6l-0.5,3.4h1.1l0.5-3.4
			h2l-0.5,3.4h1.1l0.5-3.4h1.7V325h-1.5l0.3-2.5h1.6v-1.1h-1.5L492.8,318z M490.7,325h-2l0.3-2.5h2L490.7,325z"/>
	</g>
</g>
</svg>
