<svg xmlns="http://www.w3.org/2000/svg" width="500" height="500" viewBox="0 0 500 500">
  <defs>
    <style>
      .a {
        fill: #fff;
      }
    </style>
  </defs>
  <g>
    <polygon class="a" points="173.12 326.45 137.01 253.4 166.11 211.24 134.32 211.24 102.55 258.88 102.55 211.24 69.21 211.24 69.21 326.45 102.55 326.45 102.55 299.86 114.5 282.91 134.42 326.45 173.12 326.45"/>
    <polygon class="a" points="430.79 298.18 385.38 298.18 385.38 211.24 350.01 211.24 350.01 326.45 430.79 326.45 430.79 298.18"/>
    <path class="a" d="M225.56,326.45h36.09L225.51,211.23H188.12L163.68,290.4l17.75,35.5,6.75-22.15h30.87Zm-31.37-47.86,9.32-33.42,9.32,33.42Z"/>
    <polygon class="a" points="255.39 281.05 269.61 326.45 342.08 326.45 342.08 298.94 290.08 298.94 290.08 280.11 332.12 280.11 332.12 254.54 290.08 254.54 290.08 237.82 342.08 237.82 342.08 211.24 255.39 211.24 255.39 281.05"/>
    <path class="a" d="M78.28,357.62c-2.33,0-3.45-1.46-3.45-9.56,0-7.58.63-10.32,3.37-10.32,2.44,0,3.23,1.69,3.23,5.59h5.4c0-3.9-.56-9.56-8.29-9.56-8.1,0-9.11,5.77-9.11,13.91s1,13.92,9.11,13.92c7.09,0,8.51-5,8.51-10.77h-5.4C81.65,356.61,80.23,357.62,78.28,357.62Z"/>
    <rect class="a" x="104.58" y="334.03" width="5.4" height="26.78"/>
    <polygon class="a" points="126.75 338.45 132.6 338.45 132.6 360.81 138 360.81 138 338.45 143.85 338.45 143.85 334.03 126.75 334.03 126.75 338.45"/>
    <polygon class="a" points="172.02 334.03 168.27 344.38 168.2 344.38 164.67 334.03 158.6 334.03 165.54 350.27 165.54 360.81 170.94 360.81 170.94 350.27 177.87 334.03 172.02 334.03"/>
    <path class="a" d="M225.78,361.33c7.09,0,8.52-5,8.52-10.76h-5.4c0,5.77-1.43,6.79-3.38,6.79-2.32,0-3.45-1.47-3.45-9.57,0-7.57.64-10.31,3.38-10.31,2.43,0,3.22,1.69,3.22,5.59h5.4c0-3.9-.56-9.57-8.29-9.57-8.1,0-9.11,5.78-9.11,13.92S217.68,361.33,225.78,361.33Z"/>
    <path class="a" d="M260.11,333.5c-8.1,0-9.11,5.78-9.11,13.92s1,13.91,9.11,13.91,9.11-5.77,9.11-13.91S268.21,333.5,260.11,333.5Zm0,23.86c-3.19,0-3.71-2.74-3.71-9.94s.52-9.94,3.71-9.94,3.71,2.77,3.71,9.94S263.3,357.36,260.11,357.36Z"/>
    <path class="a" d="M303.36,352.71V334H298v18.68c0,2.66-.64,4.65-3.15,4.65s-3.15-2-3.15-4.65V334h-5.4v18.68c0,7.16,4.16,8.62,8.55,8.62S303.36,359.53,303.36,352.71Z"/>
    <polygon class="a" points="333.79 352.37 333.71 352.37 327.19 334.03 320.96 334.03 320.96 360.81 325.91 360.81 325.91 342.06 325.99 342.06 332.58 360.81 338.74 360.81 338.74 334.03 333.79 334.03 333.79 352.37"/>
    <path class="a" d="M365,357.36c-2.32,0-3.45-1.47-3.45-9.57,0-7.57.64-10.31,3.38-10.31,2.43,0,3.22,1.69,3.22,5.59h5.4c0-3.9-.56-9.57-8.29-9.57-8.1,0-9.11,5.78-9.11,13.92s1,13.91,9.11,13.91c7.09,0,8.52-5,8.52-10.76h-5.4C368.34,356.34,366.91,357.36,365,357.36Z"/>
    <rect class="a" x="391.26" y="334.03" width="5.4" height="26.78"/>
    <polygon class="a" points="421.01 334.03 415.61 334.03 415.61 360.81 430.57 360.81 430.57 356.38 421.01 356.38 421.01 334.03"/>
    <path class="a" d="M268.16,196.34a11.89,11.89,0,0,0-1.89.09Z"/>
    <path class="a" d="M456.51,182,455.7,177l-.27-.15c-.23-.13-.55-.63-.5-.71a2.56,2.56,0,0,1,.78-.72.58.58,0,0,1,.43-.08c.71.06,1.42.11,2.11.23a5.92,5.92,0,0,0,2.77.2,1.75,1.75,0,0,0,1.17-1.38,1.15,1.15,0,0,0-.9-1.3c-.65-.22-1.32-.33-2-.56a2,2,0,0,1-.88-.67c-.07-.11.26-.56.41-.85a.55.55,0,0,1,.12-.14c.45-.58.36-1-.32-1.17-.52-.15-1.05-.26-1.59-.36-.89-.17-1.18-.75-.64-1.53a21.07,21.07,0,0,1,1.75-1.91,5.45,5.45,0,0,0,.91-1.32.84.84,0,0,0-.67-1.26,1.8,1.8,0,0,1-.53-.2,2.93,2.93,0,0,1-1.13-1.86,24.26,24.26,0,0,0-.94-2.68A1.15,1.15,0,0,0,454,158a4.77,4.77,0,0,1-.82.4,2.62,2.62,0,0,1-.78-.08,3.12,3.12,0,0,1,.14-.88,4.88,4.88,0,0,1,2.06-1.87,4,4,0,0,0,2.05-2.43c.2-.78,0-1.37-.7-1.55a10.39,10.39,0,0,0-1.77-.13,6.59,6.59,0,0,1-.89,0,1.38,1.38,0,0,1-1.22-1c-.19-.7.37-.94.73-1.32a15.25,15.25,0,0,0,1.88-2.21c.47-.72.13-1.3-.67-1.31a10.44,10.44,0,0,1-1.12,0c-.37-.05-.77-.11-.86-.64s.27-.77.62-1c.11-.07.25-.09.36-.15a2.18,2.18,0,0,0,1.18-1.19c.19-.54.43-1.06.66-1.58s.62-.84.24-1.34c-.24-.33-.73,0-1.22.68a9.4,9.4,0,0,1-.94,1.24c-.52.54-1.07.32-1.24-.44,0-.17-.09-.32-.13-.48a7.23,7.23,0,0,1-.44-3.37,2.73,2.73,0,0,0-.21-1.4c-.53-1.4-.93-2.73,0-4.15a1.82,1.82,0,0,0-.08-1.4,3.76,3.76,0,0,0-2-1.75c-1-.52-1.18-.2-.68-1.53.08-.21.16-.42.22-.64.36-1.25.81-1.78-.46-2.85a1,1,0,0,1-.27-.39,21.65,21.65,0,0,1-1-3.19c-.25-1.61-.27-3.26-.43-4.89s-.36-3.15-.57-4.72c-.08-.6-.57-.87-1-.59a1.52,1.52,0,0,0-.55.6,7.42,7.42,0,0,0-.61,3.34c0,1.78,0,3.57,0,5.34a6.66,6.66,0,0,1-1.27,3.63c-1.22,1.71-2.87,1.71-4,0a10.74,10.74,0,0,1-1.65-4.15,26.79,26.79,0,0,1-.23-3.12,4.43,4.43,0,0,0-.17-1.71,7.8,7.8,0,0,1-.87-4.28,6.57,6.57,0,0,0-.28-1.69.63.63,0,0,0-.46-.42c-.14,0-.38.21-.44.39-.27.76-.52,1.52-.72,2.31-.31,1.29-.53,2.61-.87,3.89a6.47,6.47,0,0,0-.17,3.55c.43,1.52,0,2.11-1.39,2.26-.43,0-.57.3-.45.71s.33.84.45,1.28c.07.27.13.69,0,.84a1.27,1.27,0,0,1-.79.26c-.42,0-.86,0-1.27.06a.92.92,0,0,0-.44,1.47c.18.26.41.48.62.73a20.63,20.63,0,0,1,1.3,1.63,1.34,1.34,0,0,1,0,1.44c-.27-.16-.52-.29-.76-.45a2.71,2.71,0,0,0-1.8-.57,1.06,1.06,0,0,0-1,.75c-.16.5.19.81.5,1.09s.8.63,1.14,1a1.11,1.11,0,0,1,0,1.47c-.82.93-.83,1.1-.19,2.19a1.67,1.67,0,0,1,.34,1.56c-.28.63-.83.55-1.34.49a1,1,0,0,0-1.13.8c-.23.6-.44,1.2-.64,1.81-.33,1-1.06,1.31-1.84.63-.57-.5-1.07-1.1-1.6-1.66a2.06,2.06,0,0,0-1.94-.88,1,1,0,0,1-1.14-.58,8,8,0,0,1-.74-2c-.19-1.19-.18-2.43-.33-3.63a10.45,10.45,0,0,0-.51-1.9c-.15-.46-.43-.43-.75-.16a3.15,3.15,0,0,0-.94,2.06c-.3,1.8-.61,3.61-1,5.4a11.65,11.65,0,0,1-.47,1.41,2.27,2.27,0,0,0,.32,2.28,1.15,1.15,0,0,1,.08.95c-.41,1.05-.88,2.07-1.36,3.09a20.45,20.45,0,0,0-1.92,5.4,5.18,5.18,0,0,0,0,2c.54,1.89-.26,4.49-1.79,5.44-.32.2-.66.35-1.07.56a3.25,3.25,0,0,1,1.22,3.44c-.24,1.28-1,1.89-2.19,1.6a1.77,1.77,0,0,0-1.49.32c-.51.34-1,.7-1.54,1s-1,.16-1.16-.29c-.16-.64.35-.73.7-.94a7.79,7.79,0,0,0,1.16-.73,1.5,1.5,0,0,0,.34-1.5c-.08-.49-.46-.61-.85-.68l-1.55-.28c-.71-.14-1-.56-.71-1.28a2.36,2.36,0,0,0-.22-1.91,6.3,6.3,0,0,1-.47-1.62,7.27,7.27,0,0,1,0-1.32c0-1.41-.37-2-1.58-2.25A1.63,1.63,0,0,1,399,148.9a6.54,6.54,0,0,0-1-2.62,7,7,0,0,1-.86-1.75,29.44,29.44,0,0,1-.75-2.94c-.43-2-.81-4-1.22-6a5.63,5.63,0,0,0-.27-1.21.91.91,0,0,0-.61-.43c-.08,0-.3.31-.35.51-.29,1.32-.62,2.64-.8,4a9.43,9.43,0,0,0,.14,3.81,2.5,2.5,0,0,1-.15,1.42,11.62,11.62,0,0,1-.83,1.7l-.26.5c-.36-.91-.72-1.82-1.1-2.73-1.61-3.87-3.37-7.67-5.31-11.4-1-2-2.16-4-3.3-6q-2.9-5-6.16-9.73c-1.25-1.82-2.55-3.61-3.88-5.38-2-2.68-4.15-5.3-6.36-7.85s-4.42-5-6.77-7.36q-3.24-3.3-6.71-6.41c-1.41-1.28-2.84-2.55-4.31-3.77s-2.84-2.3-4.28-3.42c-2-1.54-4-3-6-4.48-3.4-2.38-6.89-4.61-10.45-6.72Q325,69.26,322.69,68a161.43,161.43,0,0,0-154.23,0c-1.55.84-3.07,1.73-4.59,2.62q-5.35,3.17-10.42,6.72c-2.07,1.45-4.1,2.93-6.08,4.47q-4.44,3.45-8.61,7.2c-2.32,2.07-4.6,4.2-6.78,6.41-2.35,2.37-4.59,4.84-6.77,7.36s-4.36,5.15-6.4,7.85c-1.34,1.76-2.63,3.56-3.89,5.38q-3.27,4.74-6.17,9.73c-1.15,2-2.26,4-3.32,6-.38.74-.73,1.49-1.1,2.24l-.06,0a.89.89,0,0,0-.61.43,5.77,5.77,0,0,0-.27,1.21c0,.17-.07.34-.11.51-1.11,2.32-2.18,4.66-3.17,7s-1.85,4.58-2.69,6.92c-.1.3-.19.61-.3.91a2.19,2.19,0,0,0-.4,1.2c-.74,2.2-1.44,4.43-2.08,6.67l-.91.17c-.39.07-.77.19-.85.68a1.5,1.5,0,0,0,.34,1.5,4.12,4.12,0,0,0,.65.44c-.12.42-.25.84-.36,1.26l-1.14-.75a1.77,1.77,0,0,0-1.49-.32c-1.14.29-1.95-.32-2.19-1.6a3.25,3.25,0,0,1,1.22-3.44c-.4-.21-.75-.36-1.06-.56-1.54-.95-2.34-3.55-1.81-5.44a5,5,0,0,0,0-2,20.32,20.32,0,0,0-1.92-5.4c-.48-1-1-2-1.37-3.09a1.19,1.19,0,0,1,.08-.95,2.24,2.24,0,0,0,.32-2.28,13.71,13.71,0,0,1-.47-1.41c-.34-1.79-.65-3.6-.94-5.4a3.16,3.16,0,0,0-1-2.06c-.32-.26-.6-.3-.75.16a10.68,10.68,0,0,0-.51,1.9c-.15,1.21-.15,2.44-.34,3.63a7.13,7.13,0,0,1-.74,2,.94.94,0,0,1-1.13.58,2.07,2.07,0,0,0-1.95.88c-.53.56-1,1.16-1.6,1.66-.78.67-1.52.39-1.85-.63-.2-.61-.4-1.21-.63-1.81a1,1,0,0,0-1.14-.8c-.5.06-1.05.14-1.34-.49s.07-1.09.35-1.56c.64-1.09.63-1.26-.2-2.19A1.11,1.11,0,0,1,70,130c.34-.37.76-.66,1.14-1s.66-.59.51-1.09a1.07,1.07,0,0,0-1-.75,2.73,2.73,0,0,0-1.8.57c-.24.16-.49.29-.76.45a1.32,1.32,0,0,1,0-1.44,20.63,20.63,0,0,1,1.3-1.63c.21-.25.44-.47.62-.73a.92.92,0,0,0-.44-1.47c-.41-.09-.85,0-1.27-.06a1.25,1.25,0,0,1-.79-.26c-.13-.15-.06-.57,0-.84.11-.44.33-.84.45-1.28s0-.67-.46-.71c-1.37-.15-1.82-.74-1.39-2.26a6.29,6.29,0,0,0-.17-3.55c-.34-1.28-.56-2.6-.87-3.89-.2-.79-.45-1.55-.72-2.31-.06-.18-.3-.41-.44-.39a.64.64,0,0,0-.46.42,6.57,6.57,0,0,0-.28,1.69,7.8,7.8,0,0,1-.87,4.28,4.42,4.42,0,0,0-.18,1.71,26.79,26.79,0,0,1-.22,3.12,10.9,10.9,0,0,1-1.65,4.15c-1.14,1.69-2.79,1.69-4,0a6.7,6.7,0,0,1-1.28-3.63c-.08-1.77-.06-3.56,0-5.34a7.28,7.28,0,0,0-.61-3.34,1.43,1.43,0,0,0-.54-.6.68.68,0,0,0-1.05.59c-.21,1.57-.42,3.14-.58,4.72s-.17,3.28-.42,4.89a20.56,20.56,0,0,1-1,3.19.81.81,0,0,1-.27.39c-1.26,1.07-.81,1.59-.46,2.85.07.22.15.43.23.64.49,1.33.35,1-.69,1.53a3.8,3.8,0,0,0-2,1.75,1.87,1.87,0,0,0-.08,1.4c1,1.42.57,2.75,0,4.15a2.84,2.84,0,0,0-.21,1.4,7.23,7.23,0,0,1-.44,3.37c0,.16-.1.31-.13.47-.17.77-.72,1-1.24.45a8.88,8.88,0,0,1-.94-1.25c-.49-.69-1-1-1.22-.67-.38.5,0,.91.23,1.35s.47,1,.67,1.57a2.14,2.14,0,0,0,1.17,1.19c.12.06.26.08.37.15.35.2.73.4.63,1s-.5.59-.87.64a10.44,10.44,0,0,1-1.12,0c-.8,0-1.15.59-.67,1.31a15.19,15.19,0,0,0,1.87,2.21c.37.38.93.62.75,1.32a1.4,1.4,0,0,1-1.23,1,6.61,6.61,0,0,1-.89,0,10.44,10.44,0,0,0-1.78.13c-.7.18-.9.77-.7,1.55a4,4,0,0,0,2.06,2.43,4.88,4.88,0,0,1,2.06,1.87,3.13,3.13,0,0,1,.14.89,3,3,0,0,1-.78.07,4.44,4.44,0,0,1-.82-.4,1.16,1.16,0,0,0-1.83.61,24.26,24.26,0,0,0-.94,2.68,2.93,2.93,0,0,1-1.13,1.86,1.8,1.8,0,0,1-.53.2.85.85,0,0,0-.68,1.26,5.78,5.78,0,0,0,.92,1.32A22.75,22.75,0,0,1,42,167.83c.54.78.24,1.35-.65,1.53-.53.11-1.07.21-1.59.36-.68.2-.77.59-.32,1.17a.38.38,0,0,1,.11.14c.16.29.49.74.42.84a1.9,1.9,0,0,1-.88.68c-.64.23-1.31.34-2,.56a1.15,1.15,0,0,0-.91,1.3,1.79,1.79,0,0,0,1.17,1.38,5.91,5.91,0,0,0,2.77-.2c.71-.13,1.41-.17,2.12-.23a.61.61,0,0,1,.44.08,2.68,2.68,0,0,1,.78.72c0,.08-.27.58-.5.71l-.28.15-1.21,7.33L25,190.15V382l225,70.35L475,382V191.37Zm-70.29-31c.75,2,1.46,4.07,2.13,6.14a11.14,11.14,0,0,1-.94,1c-.68.63-1.3.43-1.58-.5a9.61,9.61,0,0,0-1.61-2.91,6.5,6.5,0,0,1-1.68-3.67.51.51,0,0,0-.09-.25ZM383,143.15q.94,2.16,1.83,4.34h-3.24c0-.75,0-1.5,0-2.24a3.91,3.91,0,0,0-.72-2.34,1,1,0,0,0-1.78.42,9.79,9.79,0,0,0-.24,2.53,12.6,12.6,0,0,1,0,1.63H367.94a4,4,0,0,0,.71-.51.94.94,0,0,0-.49-1.69,7.6,7.6,0,0,0-1.51,0,16.68,16.68,0,0,1-2.12,0c-.31,0-.6-.39-.9-.61a3.28,3.28,0,0,1,.55-.85c.79-.59,1.64-1.07,2.43-1.66,1-.73,1.23-1.27,1.05-2.19l14.21.68C382.26,141.51,382.67,142.32,383,143.15Zm-4.78,7.43c-.17.59-.37,1.16-.58,1.74a16.08,16.08,0,0,0-.93,3.34l-3.16-1.85h-1.06c-1.79-1.08-3.14-1.73-3.14-1.73a20.23,20.23,0,0,0-2.24-2Zm-1.47-19.74c.17.31.36.6.53.91q1.57,2.81,3,5.69H367.16a2.53,2.53,0,0,0,0-.38c-.07-.64-.32-.87-.87-.69a4.14,4.14,0,0,0-.91.47c-1.09.67-2,.25-2-1.14s-.31-2.9-.48-4.34c0-.39-.06-.79-.08-1.18Zm-3-5.11c.41.67.79,1.35,1.19,2H359.89a1.91,1.91,0,0,1-.28-1.8,1.87,1.87,0,0,0-.29-1.84c-.47-.65-1-1.24-1.5-1.86a3.31,3.31,0,0,1-.39-.61l14.13.72C372.3,123.48,373.06,124.59,373.77,125.73ZM367.1,116c.78,1,1.53,2.12,2.28,3.19l-12.15,0a18.37,18.37,0,0,0-.25-4.74,2.78,2.78,0,0,0-1.33-1.93l-.18-.08,9.22.44C365.5,113.94,366.32,115,367.1,116Zm-243.34,0c.83-1.12,1.71-2.21,2.57-3.3l50.8-2.41h-48.9c1.49-1.81,3-3.57,4.61-5.3l39.63-1.88H134.56l.32-.34q3.19-3.37,6.6-6.55l21.3-1H142.56c2.35-2.14,4.77-4.22,7.26-6.21q4.73-3.8,9.77-7.2c2.28-1.54,4.6-3,7-4.47q6.09-3.64,12.54-6.72C181,69.7,183,68.82,184.9,68a153.26,153.26,0,0,1,121,0c2,.83,3.88,1.71,5.79,2.62q6.42,3.08,12.48,6.72,3.58,2.15,7,4.48,5,3.41,9.75,7.19c2.58,2.06,5.1,4.19,7.53,6.41l0,0h-20l21,1c2.2,2,4.34,4.14,6.4,6.32l.53.58H318.83l39.36,1.86q2.37,2.61,4.61,5.32H314.17l41.1,2c-.1,0-.17.13-.2.32-.21,1.06-.44,2.11-.59,3.18s-.27,2.18-.4,3.26l-40.49.13,40.15,2.07a3.63,3.63,0,0,1-1.77,2.61.88.88,0,0,0-.32.71,15.49,15.49,0,0,0,.51,1.72c-.13.11-.35.26-.56.43a1.63,1.63,0,0,0-.58.84H319.53l-6-3H301.78l-10.62-8.85-16.57-1.67L256.23,107l-8.42,2.93-4.31-.82-29.62,4.12L177,134.07a4.53,4.53,0,0,0-.32-.94,1.12,1.12,0,0,0-.43-.48.55.55,0,0,0-.84.47c-.06.46-.11.92-.17,1.38a15.09,15.09,0,0,1-.22-4.67,11,11,0,0,0,.1-1.13.89.89,0,0,0-.69-.94l2.56-.12.51-.13h-30a1.79,1.79,0,0,0-.47-.6c-.21-.17-.43-.32-.57-.43a15.64,15.64,0,0,0,.52-1.72.86.86,0,0,0-.33-.71,3.85,3.85,0,0,1-1.87-3l0-.18,33-1.71-33.23-.1c-.12-1-.23-2-.37-3s-.38-2.12-.59-3.18c-.08-.39-.28-.41-.59-.24a2.78,2.78,0,0,0-1.33,1.93,18.11,18.11,0,0,0-.27,4.53L121.66,119C122.35,118,123,117,123.76,116Zm226.88,16a1.13,1.13,0,0,1-.41,1.25,2.41,2.41,0,0,0-.8,1.33,2.12,2.12,0,0,1-.67,1.65,1.84,1.84,0,0,0-.52,1.23h-6.59a2.53,2.53,0,0,0-.46-.6c-.36-.35-.73-.71-1.11-1.05a1.48,1.48,0,0,1-.42-1.68.71.71,0,0,0-.25-.87,4.2,4.2,0,0,0-1-.63c-1-.36-1.48,0-1.7,1.19a1.7,1.7,0,0,1-.52.83,4.19,4.19,0,0,1-.86.58,1.15,1.15,0,0,0-.34.31l-9.18-4.62a.66.66,0,0,1,0-.14,2.66,2.66,0,0,0-.58-2.36l26,1.23a1.33,1.33,0,0,1-.06.12A2.65,2.65,0,0,0,350.64,132Zm-1.42,10.66a1.35,1.35,0,0,1,.2.32l-.51-.43L341.83,139a.55.55,0,0,1,0-.18l6.71.32v0A4.45,4.45,0,0,0,349.22,142.64Zm-26-13-2.92-1.47,2.94.14a1,1,0,0,0-.09.39C323.2,129,323.24,129.32,323.27,129.64Zm-150.8,1.12a5.73,5.73,0,0,1-.72,3.17c-.39.94-.77,1.89-1.12,2.85a1.29,1.29,0,0,0,0,.62c0,.1,0,.16,0,.24l-7.83,4.43a1.86,1.86,0,0,1,.14-1.17,5.9,5.9,0,0,0,.35-3.91,1,1,0,0,1,0-.53.88.88,0,0,0-.38-1.25,4.25,4.25,0,0,1-.87-.58,1.78,1.78,0,0,1-.52-.83c-.22-1.16-.7-1.55-1.7-1.19a4.2,4.2,0,0,0-1,.63.71.71,0,0,0-.25.87,1.48,1.48,0,0,1-.42,1.68c-.39.34-.75.7-1.12,1.06a2.17,2.17,0,0,0-.32.36h-6.36a2,2,0,0,0-.52-1,2.19,2.19,0,0,1-.68-1.65,2.33,2.33,0,0,0-.79-1.34A1.11,1.11,0,0,1,148,132a2.68,2.68,0,0,0-.52-2.22.75.75,0,0,1-.14-.7l26.78-1.27a.85.85,0,0,0-.22,0A2.48,2.48,0,0,0,172.47,130.76Zm-18.66,11.92a2.8,2.8,0,0,1-1.87,4.18,2.55,2.55,0,0,1-1.5-.5c-.47-.3-.39-.69.11-1a4.2,4.2,0,0,0,.7-.36c.17-.15.4-.46.36-.6a1,1,0,0,0-.55-.53c-.46-.16-.95-.22-1.42-.35s-.65-.42-.27-.9a4.46,4.46,0,0,0,.7-3.49,3.29,3.29,0,0,1,0-.45l6.36-.28c0,.07,0,.12,0,.19a1.28,1.28,0,0,1-.59,1.37c-.53.37-1.07.69-1.6,1A1.06,1.06,0,0,0,153.81,142.68Zm-36.68-17c.75-1.21,1.55-2.4,2.34-3.59l21.9-1.13a3,3,0,0,1-.61,1.24c-.5.62-1,1.21-1.5,1.86A1.87,1.87,0,0,0,139,126a2,2,0,0,1-.13,1.56H116.05C116.41,126.92,116.76,126.32,117.13,125.73Zm-3.53,6c.21-.38.43-.76.65-1.13l21.59-1c-.06.59-.06,1.18-.13,1.77-.17,1.44-.43,2.87-.48,4.34s-.91,1.81-2,1.14a4.14,4.14,0,0,0-.91-.47c-.55-.18-.8,0-.87.69,0,.05,0,.1,0,.15H110.73Q112.11,134.44,113.6,131.75Zm-5.66,11.4c.39-.9.83-1.78,1.25-2.67l21.83-.95a2,2,0,0,0,.94,2.67c.78.59,1.64,1.07,2.43,1.66a3.28,3.28,0,0,1,.55.85c-.3.21-.59.58-.9.61a16.88,16.88,0,0,1-2.13,0,7.62,7.62,0,0,0-1.51,0,.94.94,0,0,0-.49,1.69,2.7,2.7,0,0,0,.39.27H119.69c0-.45,0-.91,0-1.39a9.36,9.36,0,0,0-.23-2.53,1,1,0,0,0-1.79-.42,3.91,3.91,0,0,0-.72,2.34c0,.66,0,1.33,0,2h-9.85a6.1,6.1,0,0,0-.4-1.08C107.08,145.16,107.5,144.15,107.94,143.15Zm24.58,6.27a11.86,11.86,0,0,0-3.35,2.66,40.82,40.82,0,0,0-7.25,4.59,14.58,14.58,0,0,0-1-4.35,23.78,23.78,0,0,1-.73-2.31Zm-16.07.76a4.49,4.49,0,0,1-.24.42.83.83,0,0,0-.21.43,6.5,6.5,0,0,1-1.68,3.67,9.64,9.64,0,0,0-1.62,2.91c-.27.93-.9,1.13-1.58.5a6.44,6.44,0,0,1-2.2-3.66,4.48,4.48,0,0,0-.77-1.62c-.52-.74-.51-1.1.2-1.62a.63.63,0,0,0,.13-.11l.52-.56ZM467.82,374.73c-25.87.08-124.28.36-136.66,0l121.75,6.59-25.24,7.89H358l61.26,2.63-28,8.75H367.5l17.76,1.88L250,444.81,116.51,403.07l20.76-1.71H111l-27.2-8.5,60-3.7H72l-24.73-7.73,126-6.83H32.18V196.43h202.1l-181-8.59,13.17-4.62,10.22-4.39,13.82.24,6.69-2.61,51.34-18.05,67.76-38.29,27.09-3.77,5,1,7.72-2.7,16.81,6.64,15.38,1.55,10.92,9.11h12.65L345,148.58,359.84,161h11.8l13.52,7.93L424.76,183h18.06l9,4.6-109.65,5.2-29.73-1.19-17.84-3.84-16.51-7.54-17.67-12.8,28.9,27.87-21.18,1c18.25-.4,165.76,0,199.66.07Z"/>
    <path class="a" d="M331.16,374.78l-1.31-.07A8.08,8.08,0,0,0,331.16,374.78Z"/>
    <polygon class="a" points="126.05 181.01 97.93 185.76 132.79 186 163.56 171.93 186.08 160.31 160.21 165.58 126.05 181.01"/>
    <polygon class="a" points="289.66 153.84 309.44 170 292.36 150.39 260.47 137.68 245.55 141.42 264.93 147.22 289.66 153.84"/>
    <polygon class="a" points="389.56 183.62 351.88 173.38 322.67 156.38 349.19 177.72 389.56 183.62"/>
    <polygon class="a" points="194.82 165.83 212.32 147.9 230.34 129.97 205.16 141.42 194.82 165.83"/>
    <path class="a" d="M176.89,384.35h-7.46v17h2.26v-7h5.2a5.16,5.16,0,0,0,3.89-1.31,5.87,5.87,0,0,0,0-7.42A5.28,5.28,0,0,0,176.89,384.35Zm2.06,7.36a4.09,4.09,0,0,1-2.83.79h-4.43v-6.25h4.43a4.19,4.19,0,0,1,2.83.8,3.49,3.49,0,0,1,0,4.66Z"/>
    <path class="a" d="M205.79,386.66a7.37,7.37,0,0,0-2.55-2,8.89,8.89,0,0,0-7.1,0,7.37,7.37,0,0,0-2.55,2,8.53,8.53,0,0,0-1.54,2.85,11.22,11.22,0,0,0,0,6.69,8.62,8.62,0,0,0,1.54,2.85,7.35,7.35,0,0,0,2.55,2,9.11,9.11,0,0,0,7.1,0,7.35,7.35,0,0,0,2.55-2,8.28,8.28,0,0,0,1.54-2.85,11.22,11.22,0,0,0,0-6.69A8.19,8.19,0,0,0,205.79,386.66Zm-.55,8.73a6.83,6.83,0,0,1-1,2.25,5.3,5.3,0,0,1-1.84,1.61,6.15,6.15,0,0,1-5.34,0,5.27,5.27,0,0,1-1.83-1.61,6.65,6.65,0,0,1-1.05-2.25,9.9,9.9,0,0,1,0-5.07,6.79,6.79,0,0,1,1.05-2.26,5.34,5.34,0,0,1,1.83-1.6,6.15,6.15,0,0,1,5.34,0,5.38,5.38,0,0,1,1.84,1.6,7,7,0,0,1,1,2.26,9.62,9.62,0,0,1,0,5.07Z"/>
    <path class="a" d="M230.94,396.69a4.29,4.29,0,0,0-.47-2.1,4.2,4.2,0,0,0-1.24-1.38,7,7,0,0,0-1.75-.87c-.65-.21-1.31-.4-2-.56l-2-.44a9.55,9.55,0,0,1-1.75-.51,3.41,3.41,0,0,1-1.24-.8,1.78,1.78,0,0,1-.47-1.27,2.71,2.71,0,0,1,.33-1.4,2.5,2.5,0,0,1,.85-.89,4,4,0,0,1,1.23-.48,7.33,7.33,0,0,1,1.41-.14,4.78,4.78,0,0,1,2.89.82,3.54,3.54,0,0,1,1.33,2.66h2.14a5.87,5.87,0,0,0-.54-2.42,4.6,4.6,0,0,0-1.33-1.68,5.44,5.44,0,0,0-2-1,8.88,8.88,0,0,0-2.43-.31,8.63,8.63,0,0,0-2.27.3,6.19,6.19,0,0,0-2,.91,4.6,4.6,0,0,0-1.4,1.54,4.51,4.51,0,0,0-.52,2.23,3.79,3.79,0,0,0,.46,1.94,3.86,3.86,0,0,0,1.24,1.27,7.06,7.06,0,0,0,1.76.78c.65.2,1.31.38,2,.53l2,.44a9,9,0,0,1,1.75.56,3.53,3.53,0,0,1,1.24.89,2.15,2.15,0,0,1,.46,1.43,2.84,2.84,0,0,1-.38,1.53,2.73,2.73,0,0,1-1,.94,4.67,4.67,0,0,1-1.39.49,9,9,0,0,1-1.54.14,7.19,7.19,0,0,1-1.86-.24,4.57,4.57,0,0,1-1.59-.74,3.74,3.74,0,0,1-1.09-1.27,3.83,3.83,0,0,1-.42-1.85h-2.14a5.89,5.89,0,0,0,.56,2.68,5.05,5.05,0,0,0,1.52,1.86,6.59,6.59,0,0,0,2.24,1.09,10.32,10.32,0,0,0,2.71.35,10.44,10.44,0,0,0,2.34-.27,6.9,6.9,0,0,0,2.14-.88,5.19,5.19,0,0,0,1.56-1.57A4.35,4.35,0,0,0,230.94,396.69Z"/>
    <rect class="a" x="241.4" y="384.35" width="2.26" height="17.02"/>
    <polygon class="a" points="253.29 386.25 258.96 386.25 258.96 401.36 261.23 401.36 261.23 386.25 266.9 386.25 266.9 384.35 253.29 384.35 253.29 386.25"/>
    <rect class="a" x="276.5" y="384.35" width="2.26" height="17.02"/>
    <path class="a" d="M303.5,386.66a7.37,7.37,0,0,0-2.55-2,8.89,8.89,0,0,0-7.1,0,7.37,7.37,0,0,0-2.55,2,8.53,8.53,0,0,0-1.54,2.85,11.22,11.22,0,0,0,0,6.69,8.62,8.62,0,0,0,1.54,2.85,7.35,7.35,0,0,0,2.55,2,9.11,9.11,0,0,0,7.1,0,7.35,7.35,0,0,0,2.55-2A8.28,8.28,0,0,0,305,396.2a11.22,11.22,0,0,0,0-6.69A8.19,8.19,0,0,0,303.5,386.66Zm-.54,8.73a7.05,7.05,0,0,1-1,2.25,5.3,5.3,0,0,1-1.84,1.61,6.15,6.15,0,0,1-5.34,0,5.36,5.36,0,0,1-1.83-1.61,6.65,6.65,0,0,1-1-2.25,9.9,9.9,0,0,1,0-5.07,6.79,6.79,0,0,1,1-2.26,5.83,5.83,0,0,1,7.17-1.6,5.38,5.38,0,0,1,1.84,1.6,7.21,7.21,0,0,1,1,2.26,9.9,9.9,0,0,1,0,5.07Z"/>
    <polygon class="a" points="327.33 398.14 327.29 398.14 318.33 384.35 315.92 384.35 315.92 401.36 318.06 401.36 318.06 387.71 318.11 387.71 327 401.36 329.48 401.36 329.48 384.35 327.33 384.35 327.33 398.14"/>
    <path class="a" d="M259.23,423.29v-.07a4.74,4.74,0,0,0,2.58-2,6,6,0,0,0,.83-3.19,5.76,5.76,0,0,0-2.39-4.82A8.25,8.25,0,0,0,257.8,412a9.34,9.34,0,0,0-2.77-.41,8.16,8.16,0,0,0-3.28.62,7.18,7.18,0,0,0-2.46,1.72,8.07,8.07,0,0,0-1.6,2.6,10.11,10.11,0,0,0-.66,3.26H251a6.07,6.07,0,0,1,.21-1.81,4.83,4.83,0,0,1,.74-1.59,3.67,3.67,0,0,1,1.26-1.12,3.73,3.73,0,0,1,1.79-.41,3.92,3.92,0,0,1,2.7.93,3.15,3.15,0,0,1,1,2.48,3.47,3.47,0,0,1-.46,1.86,3.34,3.34,0,0,1-1.23,1.19,5.16,5.16,0,0,1-1.72.6,9,9,0,0,1-1.93.14V425a19.2,19.2,0,0,1,2.29.07,6.07,6.07,0,0,1,2,.53,3.61,3.61,0,0,1,1.45,1.26,4.05,4.05,0,0,1,.55,2.24,4,4,0,0,1-1.33,3.19,5,5,0,0,1-3.29,1.12A4.13,4.13,0,0,1,251.6,432a5.48,5.48,0,0,1-1.09-3.67h-3.93a10.93,10.93,0,0,0,.59,3.45,7.38,7.38,0,0,0,1.6,2.65,6.94,6.94,0,0,0,2.62,1.71,10.27,10.27,0,0,0,3.67.6,10.09,10.09,0,0,0,3.27-.52,8.62,8.62,0,0,0,2.73-1.46,7,7,0,0,0,1.86-2.31,7.33,7.33,0,0,0-.47-7.06A5,5,0,0,0,259.23,423.29Z"/>
    <path class="a" d="M239.94,415.91h-1.59l-.67,4.74h-2.87l.67-4.74h-1.6l-.67,4.74h-2.56v1.57H233l-.49,3.47h-2.47v1.57h2.24l-.67,4.76h1.59l.67-4.76h2.87l-.67,4.76h1.6l.67-4.76h2.33v-1.57h-2.1l.48-3.47h2.27v-1.57h-2.06Zm-3,9.78h-2.86l.48-3.47h2.87Z"/>
  </g>
</svg>
